<svg width="1108" height="208" viewBox="0 0 1108 208" fill="none" xmlns="http://www.w3.org/2000/svg">
<g clip-path="url(#clip0)">
<rect width="1108" height="208" fill="white"/>
<circle cx="7.02704" cy="28.5412" r="7.02704" fill="#F2F3F4"/>
<circle cx="7.02704" cy="7.02704" r="7.02704" fill="#F2F3F4"/>
<circle cx="27.2801" cy="28.5412" r="7.02704" fill="#F2F3F4"/>
<circle cx="27.2801" cy="7.02704" r="7.02704" fill="#F2F3F4"/>
<circle cx="47.5331" cy="28.5412" r="7.02704" fill="#F2F3F4"/>
<circle cx="47.5331" cy="7.02704" r="7.02704" fill="#F2F3F4"/>
<circle cx="7.02704" cy="71.5695" r="7.02704" fill="#F2F3F4"/>
<circle cx="7.02704" cy="50.0553" r="7.02704" fill="#F2F3F4"/>
<circle cx="27.2801" cy="71.5695" r="7.02704" fill="#F2F3F4"/>
<circle cx="27.2801" cy="50.0553" r="7.02704" fill="#F2F3F4"/>
<circle cx="47.5331" cy="71.5695" r="7.02704" fill="#F2F3F4"/>
<circle cx="47.5331" cy="50.0553" r="7.02704" fill="#F2F3F4"/>
<circle cx="7.02704" cy="114.598" r="7.02704" fill="#F2F3F4"/>
<circle cx="7.02704" cy="93.0836" r="7.02704" fill="#F2F3F4"/>
<circle cx="27.2801" cy="114.598" r="7.02704" fill="#F2F3F4"/>
<circle cx="27.2801" cy="93.0836" r="7.02704" fill="#F2F3F4"/>
<circle cx="47.5331" cy="114.598" r="7.02704" fill="#F2F3F4"/>
<circle cx="47.5331" cy="93.0836" r="7.02704" fill="#F2F3F4"/>
<circle cx="7.02704" cy="157.626" r="7.02704" fill="#F2F3F4"/>
<circle cx="7.02704" cy="136.112" r="7.02704" fill="#F2F3F4"/>
<circle cx="27.2801" cy="157.626" r="7.02704" fill="#F2F3F4"/>
<circle cx="27.2801" cy="136.112" r="7.02704" fill="#F2F3F4"/>
<circle cx="47.5331" cy="157.626" r="7.02704" fill="#F2F3F4"/>
<circle cx="47.5331" cy="136.112" r="7.02704" fill="#F2F3F4"/>
<circle cx="7.02704" cy="200.654" r="7.02704" fill="#F2F3F4"/>
<circle cx="7.02704" cy="179.14" r="7.02704" fill="#F2F3F4"/>
<circle cx="27.2801" cy="200.654" r="7.02704" fill="#F2F3F4"/>
<circle cx="27.2801" cy="179.14" r="7.02704" fill="#F2F3F4"/>
<circle cx="47.5331" cy="200.654" r="7.02704" fill="#F2F3F4"/>
<circle cx="47.5331" cy="179.14" r="7.02704" fill="#F2F3F4"/>
<circle cx="189.305" cy="28.5412" r="7.02704" fill="#F2F3F4"/>
<circle cx="189.305" cy="7.02704" r="7.02704" fill="#F2F3F4"/>
<circle cx="209.558" cy="28.5412" r="7.02704" fill="#F2F3F4"/>
<circle cx="209.558" cy="7.02704" r="7.02704" fill="#F2F3F4"/>
<circle cx="229.811" cy="28.5412" r="7.02704" fill="#F2F3F4"/>
<circle cx="229.811" cy="7.02704" r="7.02704" fill="#F2F3F4"/>
<circle cx="189.305" cy="71.5695" r="7.02704" fill="#F2F3F4"/>
<circle cx="189.305" cy="50.0553" r="7.02704" fill="#F2F3F4"/>
<circle cx="209.558" cy="71.5695" r="7.02704" fill="#F2F3F4"/>
<circle cx="209.558" cy="50.0553" r="7.02704" fill="#F2F3F4"/>
<circle cx="229.811" cy="71.5695" r="7.02704" fill="#F2F3F4"/>
<circle cx="229.811" cy="50.0553" r="7.02704" fill="#F2F3F4"/>
<circle cx="189.305" cy="114.598" r="7.02704" fill="#F2F3F4"/>
<circle cx="189.305" cy="93.0836" r="7.02704" fill="#F2F3F4"/>
<circle cx="209.558" cy="114.598" r="7.02704" fill="#F2F3F4"/>
<circle cx="209.558" cy="93.0836" r="7.02704" fill="#F2F3F4"/>
<circle cx="229.811" cy="114.598" r="7.02704" fill="#F2F3F4"/>
<circle cx="229.811" cy="93.0836" r="7.02704" fill="#F2F3F4"/>
<circle cx="189.305" cy="157.626" r="7.02704" fill="#F2F3F4"/>
<circle cx="189.305" cy="136.112" r="7.02704" fill="#F2F3F4"/>
<circle cx="209.558" cy="157.626" r="7.02704" fill="#F2F3F4"/>
<circle cx="209.558" cy="136.112" r="7.02704" fill="#F2F3F4"/>
<circle cx="229.811" cy="157.626" r="7.02704" fill="#F2F3F4"/>
<circle cx="229.811" cy="136.112" r="7.02704" fill="#F2F3F4"/>
<circle cx="189.305" cy="200.654" r="7.02704" fill="#F2F3F4"/>
<circle cx="189.305" cy="179.14" r="7.02704" fill="#F2F3F4"/>
<circle cx="209.558" cy="200.654" r="7.02704" fill="#F2F3F4"/>
<circle cx="209.558" cy="179.14" r="7.02704" fill="#F2F3F4"/>
<circle cx="229.811" cy="200.654" r="7.02704" fill="#F2F3F4"/>
<circle cx="229.811" cy="179.14" r="7.02704" fill="#F2F3F4"/>
<circle cx="250.064" cy="28.5412" r="7.02704" fill="#F2F3F4"/>
<circle cx="250.064" cy="7.02704" r="7.02704" fill="#F2F3F4"/>
<circle cx="270.317" cy="28.5412" r="7.02704" fill="#F2F3F4"/>
<circle cx="270.317" cy="7.02704" r="7.02704" fill="#F2F3F4"/>
<circle cx="290.57" cy="28.5412" r="7.02704" fill="#F2F3F4"/>
<circle cx="290.57" cy="7.02704" r="7.02704" fill="#F2F3F4"/>
<circle cx="250.064" cy="71.5695" r="7.02704" fill="#F2F3F4"/>
<circle cx="250.064" cy="50.0553" r="7.02704" fill="#F2F3F4"/>
<circle cx="270.317" cy="71.5695" r="7.02704" fill="#F2F3F4"/>
<circle cx="270.317" cy="50.0553" r="7.02704" fill="#F2F3F4"/>
<circle cx="290.57" cy="71.5695" r="7.02704" fill="#F2F3F4"/>
<circle cx="290.57" cy="50.0553" r="7.02704" fill="#F2F3F4"/>
<circle cx="250.064" cy="114.598" r="7.02704" fill="#F2F3F4"/>
<circle cx="250.064" cy="93.0836" r="7.02704" fill="#F2F3F4"/>
<circle cx="270.317" cy="114.598" r="7.02704" fill="#F2F3F4"/>
<circle cx="270.317" cy="93.0836" r="7.02704" fill="#F2F3F4"/>
<circle cx="290.57" cy="114.598" r="7.02704" fill="#F2F3F4"/>
<circle cx="290.57" cy="93.0836" r="7.02704" fill="#F2F3F4"/>
<circle cx="250.064" cy="157.626" r="7.02704" fill="#F2F3F4"/>
<circle cx="250.064" cy="136.112" r="7.02704" fill="#F2F3F4"/>
<circle cx="270.317" cy="157.626" r="7.02704" fill="#F2F3F4"/>
<circle cx="270.317" cy="136.112" r="7.02704" fill="#F2F3F4"/>
<circle cx="290.57" cy="157.626" r="7.02704" fill="#F2F3F4"/>
<circle cx="290.57" cy="136.112" r="7.02704" fill="#F2F3F4"/>
<circle cx="250.064" cy="200.654" r="7.02704" fill="#F2F3F4"/>
<circle cx="250.064" cy="179.14" r="7.02704" fill="#F2F3F4"/>
<circle cx="270.317" cy="200.654" r="7.02704" fill="#F2F3F4"/>
<circle cx="270.317" cy="179.14" r="7.02704" fill="#F2F3F4"/>
<circle cx="290.57" cy="200.654" r="7.02704" fill="#F2F3F4"/>
<circle cx="290.57" cy="179.14" r="7.02704" fill="#F2F3F4"/>
<circle cx="310.823" cy="28.5412" r="7.02704" fill="#F2F3F4"/>
<circle cx="310.823" cy="7.02704" r="7.02704" fill="#F2F3F4"/>
<circle cx="331.076" cy="28.5412" r="7.02704" fill="#F2F3F4"/>
<circle cx="331.076" cy="7.02704" r="7.02704" fill="#F2F3F4"/>
<circle cx="351.329" cy="28.5412" r="7.02704" fill="#F2F3F4"/>
<circle cx="351.329" cy="7.02704" r="7.02704" fill="#F2F3F4"/>
<circle cx="310.823" cy="71.5695" r="7.02704" fill="#F2F3F4"/>
<circle cx="310.823" cy="50.0553" r="7.02704" fill="#F2F3F4"/>
<circle cx="331.076" cy="71.5695" r="7.02704" fill="#F2F3F4"/>
<circle cx="331.076" cy="50.0553" r="7.02704" fill="#F2F3F4"/>
<circle cx="351.329" cy="71.5695" r="7.02704" fill="#F2F3F4"/>
<circle cx="351.329" cy="50.0553" r="7.02704" fill="#F2F3F4"/>
<circle cx="310.823" cy="114.598" r="7.02704" fill="#F2F3F4"/>
<circle cx="310.823" cy="93.0836" r="7.02704" fill="#F2F3F4"/>
<circle cx="331.076" cy="114.598" r="7.02704" fill="#F2F3F4"/>
<circle cx="331.076" cy="93.0836" r="7.02704" fill="#F2F3F4"/>
<circle cx="351.329" cy="114.598" r="7.02704" fill="#F2F3F4"/>
<circle cx="351.329" cy="93.0836" r="7.02704" fill="#F2F3F4"/>
<circle cx="310.823" cy="157.626" r="7.02704" fill="#F2F3F4"/>
<circle cx="310.823" cy="136.112" r="7.02704" fill="#F2F3F4"/>
<circle cx="331.076" cy="157.626" r="7.02704" fill="#F2F3F4"/>
<circle cx="331.076" cy="136.112" r="7.02704" fill="#F2F3F4"/>
<circle cx="351.329" cy="157.626" r="7.02704" fill="#F2F3F4"/>
<circle cx="351.329" cy="136.112" r="7.02704" fill="#F2F3F4"/>
<circle cx="310.823" cy="200.654" r="7.02704" fill="#F2F3F4"/>
<circle cx="310.823" cy="179.14" r="7.02704" fill="#F2F3F4"/>
<circle cx="331.076" cy="200.654" r="7.02704" fill="#F2F3F4"/>
<circle cx="331.076" cy="179.14" r="7.02704" fill="#F2F3F4"/>
<circle cx="351.329" cy="200.654" r="7.02704" fill="#F2F3F4"/>
<circle cx="351.329" cy="179.14" r="7.02704" fill="#F2F3F4"/>
<circle cx="371.582" cy="29.1622" r="7.02704" fill="#F2F3F4"/>
<circle cx="371.582" cy="7.64808" r="7.02704" fill="#F2F3F4"/>
<circle cx="391.835" cy="29.1622" r="7.02704" fill="#F2F3F4"/>
<circle cx="391.835" cy="7.64808" r="7.02704" fill="#F2F3F4"/>
<circle cx="412.088" cy="29.1622" r="7.02704" fill="#F2F3F4"/>
<circle cx="412.088" cy="7.64808" r="7.02704" fill="#F2F3F4"/>
<circle cx="371.582" cy="72.1905" r="7.02704" fill="#F2F3F4"/>
<circle cx="371.582" cy="50.6763" r="7.02704" fill="#F2F3F4"/>
<circle cx="391.835" cy="72.1905" r="7.02704" fill="#F2F3F4"/>
<circle cx="391.835" cy="50.6763" r="7.02704" fill="#F2F3F4"/>
<circle cx="412.088" cy="72.1905" r="7.02704" fill="#F2F3F4"/>
<circle cx="412.088" cy="50.6763" r="7.02704" fill="#F2F3F4"/>
<circle cx="371.582" cy="115.219" r="7.02704" fill="#F2F3F4"/>
<circle cx="371.582" cy="93.7046" r="7.02704" fill="#F2F3F4"/>
<circle cx="391.835" cy="115.219" r="7.02704" fill="#F2F3F4"/>
<circle cx="391.835" cy="93.7046" r="7.02704" fill="#F2F3F4"/>
<circle cx="412.088" cy="115.219" r="7.02704" fill="#F2F3F4"/>
<circle cx="412.088" cy="93.7046" r="7.02704" fill="#F2F3F4"/>
<circle cx="371.582" cy="158.247" r="7.02704" fill="#F2F3F4"/>
<circle cx="371.582" cy="136.733" r="7.02704" fill="#F2F3F4"/>
<circle cx="391.835" cy="158.247" r="7.02704" fill="#F2F3F4"/>
<circle cx="391.835" cy="136.733" r="7.02704" fill="#F2F3F4"/>
<circle cx="412.088" cy="158.247" r="7.02704" fill="#F2F3F4"/>
<circle cx="412.088" cy="136.733" r="7.02704" fill="#F2F3F4"/>
<circle cx="371.582" cy="201.275" r="7.02704" fill="#F2F3F4"/>
<circle cx="371.582" cy="179.761" r="7.02704" fill="#F2F3F4"/>
<circle cx="391.835" cy="201.275" r="7.02704" fill="#F2F3F4"/>
<circle cx="391.835" cy="179.761" r="7.02704" fill="#F2F3F4"/>
<circle cx="412.088" cy="201.275" r="7.02704" fill="#F2F3F4"/>
<circle cx="412.088" cy="179.761" r="7.02704" fill="#F2F3F4"/>
<circle cx="432.341" cy="28.5412" r="7.02704" fill="#F2F3F4"/>
<circle cx="432.341" cy="7.02704" r="7.02704" fill="#F2F3F4"/>
<circle cx="452.594" cy="28.5412" r="7.02704" fill="#F2F3F4"/>
<circle cx="452.594" cy="7.02704" r="7.02704" fill="#F2F3F4"/>
<circle cx="472.847" cy="28.5412" r="7.02704" fill="#F2F3F4"/>
<circle cx="472.847" cy="7.02704" r="7.02704" fill="#F2F3F4"/>
<circle cx="432.341" cy="71.5695" r="7.02704" fill="#F2F3F4"/>
<circle cx="432.341" cy="50.0553" r="7.02704" fill="#F2F3F4"/>
<circle cx="452.594" cy="71.5695" r="7.02704" fill="#F2F3F4"/>
<circle cx="452.594" cy="50.0553" r="7.02704" fill="#F2F3F4"/>
<circle cx="472.847" cy="71.5695" r="7.02704" fill="#F2F3F4"/>
<circle cx="472.847" cy="50.0553" r="7.02704" fill="#F2F3F4"/>
<circle cx="432.341" cy="114.598" r="7.02704" fill="#F2F3F4"/>
<circle cx="432.341" cy="93.0836" r="7.02704" fill="#F2F3F4"/>
<circle cx="452.594" cy="114.598" r="7.02704" fill="#F2F3F4"/>
<circle cx="452.594" cy="93.0836" r="7.02704" fill="#F2F3F4"/>
<circle cx="472.847" cy="114.598" r="7.02704" fill="#F2F3F4"/>
<circle cx="472.847" cy="93.0836" r="7.02704" fill="#F2F3F4"/>
<circle cx="432.341" cy="157.626" r="7.02704" fill="#F2F3F4"/>
<circle cx="432.341" cy="136.112" r="7.02704" fill="#F2F3F4"/>
<circle cx="452.594" cy="157.626" r="7.02704" fill="#F2F3F4"/>
<circle cx="452.594" cy="136.112" r="7.02704" fill="#F2F3F4"/>
<circle cx="472.847" cy="157.626" r="7.02704" fill="#F2F3F4"/>
<circle cx="472.847" cy="136.112" r="7.02704" fill="#F2F3F4"/>
<circle cx="432.341" cy="200.654" r="7.02704" fill="#F2F3F4"/>
<circle cx="432.341" cy="179.14" r="7.02704" fill="#F2F3F4"/>
<circle cx="452.594" cy="200.654" r="7.02704" fill="#F2F3F4"/>
<circle cx="452.594" cy="179.14" r="7.02704" fill="#F2F3F4"/>
<circle cx="472.847" cy="200.654" r="7.02704" fill="#F2F3F4"/>
<circle cx="472.847" cy="179.14" r="7.02704" fill="#F2F3F4"/>
<circle cx="493.1" cy="28.5412" r="7.02704" fill="#F2F3F4"/>
<circle cx="493.1" cy="7.02704" r="7.02704" fill="#F2F3F4"/>
<circle cx="513.353" cy="28.5412" r="7.02704" fill="#F2F3F4"/>
<circle cx="513.353" cy="7.02704" r="7.02704" fill="#F2F3F4"/>
<circle cx="533.606" cy="28.5412" r="7.02704" fill="#F2F3F4"/>
<circle cx="533.606" cy="7.02704" r="7.02704" fill="#F2F3F4"/>
<circle cx="493.1" cy="71.5695" r="7.02704" fill="#F2F3F4"/>
<circle cx="493.1" cy="50.0553" r="7.02704" fill="#F2F3F4"/>
<circle cx="513.353" cy="71.5695" r="7.02704" fill="#F2F3F4"/>
<circle cx="513.353" cy="50.0553" r="7.02704" fill="#F2F3F4"/>
<circle cx="533.606" cy="71.5695" r="7.02704" fill="#F2F3F4"/>
<circle cx="533.606" cy="50.0553" r="7.02704" fill="#F2F3F4"/>
<circle cx="493.1" cy="114.598" r="7.02704" fill="#F2F3F4"/>
<circle cx="493.1" cy="93.0836" r="7.02704" fill="#F2F3F4"/>
<circle cx="513.353" cy="114.598" r="7.02704" fill="#F2F3F4"/>
<circle cx="513.353" cy="93.0836" r="7.02704" fill="#F2F3F4"/>
<circle cx="533.606" cy="114.598" r="7.02704" fill="#F2F3F4"/>
<circle cx="533.606" cy="93.0836" r="7.02704" fill="#F2F3F4"/>
<circle cx="493.1" cy="157.626" r="7.02704" fill="#F2F3F4"/>
<circle cx="493.1" cy="136.112" r="7.02704" fill="#F2F3F4"/>
<circle cx="513.353" cy="157.626" r="7.02704" fill="#F2F3F4"/>
<circle cx="513.353" cy="136.112" r="7.02704" fill="#F2F3F4"/>
<circle cx="533.606" cy="157.626" r="7.02704" fill="#F2F3F4"/>
<circle cx="533.606" cy="136.112" r="7.02704" fill="#F2F3F4"/>
<circle cx="493.1" cy="200.654" r="7.02704" fill="#F2F3F4"/>
<circle cx="493.1" cy="179.14" r="7.02704" fill="#F2F3F4"/>
<circle cx="513.353" cy="200.654" r="7.02704" fill="#F2F3F4"/>
<circle cx="513.353" cy="179.14" r="7.02704" fill="#F2F3F4"/>
<circle cx="533.606" cy="200.654" r="7.02704" fill="#F2F3F4"/>
<circle cx="533.606" cy="179.14" r="7.02704" fill="#F2F3F4"/>
<circle cx="553.859" cy="29.1622" r="7.02704" fill="#F2F3F4"/>
<circle cx="553.859" cy="7.64808" r="7.02704" fill="#F2F3F4"/>
<circle cx="574.112" cy="29.1622" r="7.02704" fill="#F2F3F4"/>
<circle cx="574.112" cy="7.64808" r="7.02704" fill="#F2F3F4"/>
<circle cx="594.366" cy="29.1622" r="7.02704" fill="#F2F3F4"/>
<circle cx="594.366" cy="7.64808" r="7.02704" fill="#F2F3F4"/>
<circle cx="553.859" cy="72.1905" r="7.02704" fill="#F2F3F4"/>
<circle cx="553.859" cy="50.6763" r="7.02704" fill="#F2F3F4"/>
<circle cx="574.112" cy="72.1905" r="7.02704" fill="#F2F3F4"/>
<circle cx="574.112" cy="50.6763" r="7.02704" fill="#F2F3F4"/>
<circle cx="594.366" cy="72.1905" r="7.02704" fill="#F2F3F4"/>
<circle cx="594.366" cy="50.6763" r="7.02704" fill="#F2F3F4"/>
<circle cx="553.859" cy="115.219" r="7.02704" fill="#F2F3F4"/>
<circle cx="553.859" cy="93.7046" r="7.02704" fill="#F2F3F4"/>
<circle cx="574.112" cy="115.219" r="7.02704" fill="#F2F3F4"/>
<circle cx="574.112" cy="93.7046" r="7.02704" fill="#F2F3F4"/>
<circle cx="594.366" cy="115.219" r="7.02704" fill="#F2F3F4"/>
<circle cx="594.366" cy="93.7046" r="7.02704" fill="#F2F3F4"/>
<circle cx="553.859" cy="158.247" r="7.02704" fill="#F2F3F4"/>
<circle cx="553.859" cy="136.733" r="7.02704" fill="#F2F3F4"/>
<circle cx="574.112" cy="158.247" r="7.02704" fill="#F2F3F4"/>
<circle cx="574.112" cy="136.733" r="7.02704" fill="#F2F3F4"/>
<circle cx="594.366" cy="158.247" r="7.02704" fill="#F2F3F4"/>
<circle cx="594.366" cy="136.733" r="7.02704" fill="#F2F3F4"/>
<circle cx="553.859" cy="201.275" r="7.02704" fill="#F2F3F4"/>
<circle cx="553.859" cy="179.761" r="7.02704" fill="#F2F3F4"/>
<circle cx="574.112" cy="201.275" r="7.02704" fill="#F2F3F4"/>
<circle cx="574.112" cy="179.761" r="7.02704" fill="#F2F3F4"/>
<circle cx="594.366" cy="201.275" r="7.02704" fill="#F2F3F4"/>
<circle cx="594.366" cy="179.761" r="7.02704" fill="#F2F3F4"/>
<circle cx="614.619" cy="28.5412" r="7.02704" fill="#F2F3F4"/>
<circle cx="614.619" cy="7.02704" r="7.02704" fill="#F2F3F4"/>
<circle cx="634.872" cy="28.5412" r="7.02704" fill="#F2F3F4"/>
<circle cx="634.872" cy="7.02704" r="7.02704" fill="#F2F3F4"/>
<circle cx="655.125" cy="28.5412" r="7.02704" fill="#F2F3F4"/>
<circle cx="655.125" cy="7.02704" r="7.02704" fill="#F2F3F4"/>
<circle cx="614.619" cy="71.5695" r="7.02704" fill="#F2F3F4"/>
<circle cx="614.619" cy="50.0553" r="7.02704" fill="#F2F3F4"/>
<circle cx="634.872" cy="71.5695" r="7.02704" fill="#F2F3F4"/>
<circle cx="634.872" cy="50.0553" r="7.02704" fill="#F2F3F4"/>
<circle cx="655.125" cy="71.5695" r="7.02704" fill="#F2F3F4"/>
<circle cx="655.125" cy="50.0553" r="7.02704" fill="#F2F3F4"/>
<circle cx="614.619" cy="114.598" r="7.02704" fill="#F2F3F4"/>
<circle cx="614.619" cy="93.0836" r="7.02704" fill="#F2F3F4"/>
<circle cx="634.872" cy="114.598" r="7.02704" fill="#F2F3F4"/>
<circle cx="634.872" cy="93.0836" r="7.02704" fill="#F2F3F4"/>
<circle cx="655.125" cy="114.598" r="7.02704" fill="#F2F3F4"/>
<circle cx="655.125" cy="93.0836" r="7.02704" fill="#F2F3F4"/>
<circle cx="614.619" cy="157.626" r="7.02704" fill="#F2F3F4"/>
<circle cx="614.619" cy="136.112" r="7.02704" fill="#F2F3F4"/>
<circle cx="634.872" cy="157.626" r="7.02704" fill="#F2F3F4"/>
<circle cx="634.872" cy="136.112" r="7.02704" fill="#F2F3F4"/>
<circle cx="655.125" cy="157.626" r="7.02704" fill="#F2F3F4"/>
<circle cx="655.125" cy="136.112" r="7.02704" fill="#F2F3F4"/>
<circle cx="614.619" cy="200.654" r="7.02704" fill="#F2F3F4"/>
<circle cx="614.619" cy="179.14" r="7.02704" fill="#F2F3F4"/>
<circle cx="634.872" cy="200.654" r="7.02704" fill="#F2F3F4"/>
<circle cx="634.872" cy="179.14" r="7.02704" fill="#F2F3F4"/>
<circle cx="655.125" cy="200.654" r="7.02704" fill="#F2F3F4"/>
<circle cx="655.125" cy="179.14" r="7.02704" fill="#F2F3F4"/>
<circle cx="675.378" cy="28.5412" r="7.02704" fill="#F2F3F4"/>
<circle cx="675.378" cy="7.02704" r="7.02704" fill="#F2F3F4"/>
<circle cx="695.631" cy="28.5412" r="7.02704" fill="#F2F3F4"/>
<circle cx="695.631" cy="7.02704" r="7.02704" fill="#F2F3F4"/>
<circle cx="715.884" cy="28.5412" r="7.02704" fill="#F2F3F4"/>
<circle cx="715.884" cy="7.02704" r="7.02704" fill="#F2F3F4"/>
<circle cx="675.378" cy="71.5695" r="7.02704" fill="#F2F3F4"/>
<circle cx="675.378" cy="50.0553" r="7.02704" fill="#F2F3F4"/>
<circle cx="695.631" cy="71.5695" r="7.02704" fill="#F2F3F4"/>
<circle cx="695.631" cy="50.0553" r="7.02704" fill="#F2F3F4"/>
<circle cx="715.884" cy="71.5695" r="7.02704" fill="#F2F3F4"/>
<circle cx="715.884" cy="50.0553" r="7.02704" fill="#F2F3F4"/>
<circle cx="675.378" cy="114.598" r="7.02704" fill="#F2F3F4"/>
<circle cx="675.378" cy="93.0836" r="7.02704" fill="#F2F3F4"/>
<circle cx="695.631" cy="114.598" r="7.02704" fill="#F2F3F4"/>
<circle cx="695.631" cy="93.0836" r="7.02704" fill="#F2F3F4"/>
<circle cx="715.884" cy="114.598" r="7.02704" fill="#F2F3F4"/>
<circle cx="715.884" cy="93.0836" r="7.02704" fill="#F2F3F4"/>
<circle cx="675.378" cy="157.626" r="7.02704" fill="#F2F3F4"/>
<circle cx="675.378" cy="136.112" r="7.02704" fill="#F2F3F4"/>
<circle cx="695.631" cy="157.626" r="7.02704" fill="#F2F3F4"/>
<circle cx="695.631" cy="136.112" r="7.02704" fill="#F2F3F4"/>
<circle cx="715.884" cy="157.626" r="7.02704" fill="#F2F3F4"/>
<circle cx="715.884" cy="136.112" r="7.02704" fill="#F2F3F4"/>
<circle cx="675.378" cy="200.654" r="7.02704" fill="#F2F3F4"/>
<circle cx="675.378" cy="179.14" r="7.02704" fill="#F2F3F4"/>
<circle cx="695.631" cy="200.654" r="7.02704" fill="#F2F3F4"/>
<circle cx="695.631" cy="179.14" r="7.02704" fill="#F2F3F4"/>
<circle cx="715.884" cy="200.654" r="7.02704" fill="#F2F3F4"/>
<circle cx="715.884" cy="179.14" r="7.02704" fill="#F2F3F4"/>
<circle cx="736.137" cy="29.1622" r="7.02704" fill="#F2F3F4"/>
<circle cx="736.137" cy="7.64808" r="7.02704" fill="#F2F3F4"/>
<circle cx="756.39" cy="29.1622" r="7.02704" fill="#F2F3F4"/>
<circle cx="756.39" cy="7.64808" r="7.02704" fill="#F2F3F4"/>
<circle cx="776.643" cy="29.1622" r="7.02704" fill="#F2F3F4"/>
<circle cx="776.643" cy="7.64808" r="7.02704" fill="#F2F3F4"/>
<circle cx="736.137" cy="72.1905" r="7.02704" fill="#F2F3F4"/>
<circle cx="736.137" cy="50.6763" r="7.02704" fill="#F2F3F4"/>
<circle cx="756.39" cy="72.1905" r="7.02704" fill="#F2F3F4"/>
<circle cx="756.39" cy="50.6763" r="7.02704" fill="#F2F3F4"/>
<circle cx="776.643" cy="72.1905" r="7.02704" fill="#F2F3F4"/>
<circle cx="776.643" cy="50.6763" r="7.02704" fill="#F2F3F4"/>
<circle cx="736.137" cy="115.219" r="7.02704" fill="#F2F3F4"/>
<circle cx="736.137" cy="93.7046" r="7.02704" fill="#F2F3F4"/>
<circle cx="756.39" cy="115.219" r="7.02704" fill="#F2F3F4"/>
<circle cx="756.39" cy="93.7046" r="7.02704" fill="#F2F3F4"/>
<circle cx="776.643" cy="115.219" r="7.02704" fill="#F2F3F4"/>
<circle cx="776.643" cy="93.7046" r="7.02704" fill="#F2F3F4"/>
<circle cx="736.137" cy="158.247" r="7.02704" fill="#F2F3F4"/>
<circle cx="736.137" cy="136.733" r="7.02704" fill="#F2F3F4"/>
<circle cx="756.39" cy="158.247" r="7.02704" fill="#F2F3F4"/>
<circle cx="756.39" cy="136.733" r="7.02704" fill="#F2F3F4"/>
<circle cx="776.643" cy="158.247" r="7.02704" fill="#F2F3F4"/>
<circle cx="776.643" cy="136.733" r="7.02704" fill="#F2F3F4"/>
<circle cx="736.137" cy="201.275" r="7.02704" fill="#F2F3F4"/>
<circle cx="736.137" cy="179.761" r="7.02704" fill="#F2F3F4"/>
<circle cx="756.39" cy="201.275" r="7.02704" fill="#F2F3F4"/>
<circle cx="756.39" cy="179.761" r="7.02704" fill="#F2F3F4"/>
<circle cx="776.643" cy="201.275" r="7.02704" fill="#F2F3F4"/>
<circle cx="776.643" cy="179.761" r="7.02704" fill="#F2F3F4"/>
<circle cx="796.896" cy="28.5412" r="7.02704" fill="#F2F3F4"/>
<circle cx="796.896" cy="7.02704" r="7.02704" fill="#F2F3F4"/>
<circle cx="817.149" cy="28.5412" r="7.02704" fill="#F2F3F4"/>
<circle cx="817.149" cy="7.02704" r="7.02704" fill="#F2F3F4"/>
<circle cx="837.402" cy="28.5412" r="7.02704" fill="#F2F3F4"/>
<circle cx="837.402" cy="7.02704" r="7.02704" fill="#F2F3F4"/>
<circle cx="796.896" cy="71.5695" r="7.02704" fill="#F2F3F4"/>
<circle cx="796.896" cy="50.0553" r="7.02704" fill="#F2F3F4"/>
<circle cx="817.149" cy="71.5695" r="7.02704" fill="#F2F3F4"/>
<circle cx="817.149" cy="50.0553" r="7.02704" fill="#F2F3F4"/>
<circle cx="837.402" cy="71.5695" r="7.02704" fill="#F2F3F4"/>
<circle cx="837.402" cy="50.0553" r="7.02704" fill="#F2F3F4"/>
<circle cx="796.896" cy="114.598" r="7.02704" fill="#F2F3F4"/>
<circle cx="796.896" cy="93.0836" r="7.02704" fill="#F2F3F4"/>
<circle cx="817.149" cy="114.598" r="7.02704" fill="#F2F3F4"/>
<circle cx="817.149" cy="93.0836" r="7.02704" fill="#F2F3F4"/>
<circle cx="837.402" cy="114.598" r="7.02704" fill="#F2F3F4"/>
<circle cx="837.402" cy="93.0836" r="7.02704" fill="#F2F3F4"/>
<circle cx="796.896" cy="157.626" r="7.02704" fill="#F2F3F4"/>
<circle cx="796.896" cy="136.112" r="7.02704" fill="#F2F3F4"/>
<circle cx="817.149" cy="157.626" r="7.02704" fill="#F2F3F4"/>
<circle cx="817.149" cy="136.112" r="7.02704" fill="#F2F3F4"/>
<circle cx="837.402" cy="157.626" r="7.02704" fill="#F2F3F4"/>
<circle cx="837.402" cy="136.112" r="7.02704" fill="#F2F3F4"/>
<circle cx="796.896" cy="200.654" r="7.02704" fill="#F2F3F4"/>
<circle cx="796.896" cy="179.14" r="7.02704" fill="#F2F3F4"/>
<circle cx="817.149" cy="200.654" r="7.02704" fill="#F2F3F4"/>
<circle cx="817.149" cy="179.14" r="7.02704" fill="#F2F3F4"/>
<circle cx="837.402" cy="200.654" r="7.02704" fill="#F2F3F4"/>
<circle cx="837.402" cy="179.14" r="7.02704" fill="#F2F3F4"/>
<circle cx="857.655" cy="28.5412" r="7.02704" fill="#F2F3F4"/>
<circle cx="857.655" cy="7.02704" r="7.02704" fill="#F2F3F4"/>
<circle cx="877.908" cy="28.5412" r="7.02704" fill="#F2F3F4"/>
<circle cx="877.908" cy="7.02704" r="7.02704" fill="#F2F3F4"/>
<circle cx="898.161" cy="28.5412" r="7.02704" fill="#F2F3F4"/>
<circle cx="898.161" cy="7.02704" r="7.02704" fill="#F2F3F4"/>
<circle cx="857.655" cy="71.5695" r="7.02704" fill="#F2F3F4"/>
<circle cx="857.655" cy="50.0553" r="7.02704" fill="#F2F3F4"/>
<circle cx="877.908" cy="71.5695" r="7.02704" fill="#F2F3F4"/>
<circle cx="877.908" cy="50.0553" r="7.02704" fill="#F2F3F4"/>
<circle cx="898.161" cy="71.5695" r="7.02704" fill="#F2F3F4"/>
<circle cx="898.161" cy="50.0553" r="7.02704" fill="#F2F3F4"/>
<circle cx="857.655" cy="114.598" r="7.02704" fill="#F2F3F4"/>
<circle cx="857.655" cy="93.0836" r="7.02704" fill="#F2F3F4"/>
<circle cx="877.908" cy="114.598" r="7.02704" fill="#F2F3F4"/>
<circle cx="877.908" cy="93.0836" r="7.02704" fill="#F2F3F4"/>
<circle cx="898.161" cy="114.598" r="7.02704" fill="#F2F3F4"/>
<circle cx="898.161" cy="93.0836" r="7.02704" fill="#F2F3F4"/>
<circle cx="857.655" cy="157.626" r="7.02704" fill="#F2F3F4"/>
<circle cx="857.655" cy="136.112" r="7.02704" fill="#F2F3F4"/>
<circle cx="877.908" cy="157.626" r="7.02704" fill="#F2F3F4"/>
<circle cx="877.908" cy="136.112" r="7.02704" fill="#F2F3F4"/>
<circle cx="898.161" cy="157.626" r="7.02704" fill="#F2F3F4"/>
<circle cx="898.161" cy="136.112" r="7.02704" fill="#F2F3F4"/>
<circle cx="857.655" cy="200.654" r="7.02704" fill="#F2F3F4"/>
<circle cx="857.655" cy="179.14" r="7.02704" fill="#F2F3F4"/>
<circle cx="877.908" cy="200.654" r="7.02704" fill="#F2F3F4"/>
<circle cx="877.908" cy="179.14" r="7.02704" fill="#F2F3F4"/>
<circle cx="898.161" cy="200.654" r="7.02704" fill="#F2F3F4"/>
<circle cx="898.161" cy="179.14" r="7.02704" fill="#F2F3F4"/>
<circle cx="918.414" cy="29.1622" r="7.02704" fill="#F2F3F4"/>
<circle cx="918.414" cy="7.64808" r="7.02704" fill="#F2F3F4"/>
<circle cx="938.667" cy="29.1622" r="7.02704" fill="#F2F3F4"/>
<circle cx="938.667" cy="7.64808" r="7.02704" fill="#F2F3F4"/>
<circle cx="958.921" cy="29.1622" r="7.02704" fill="#F2F3F4"/>
<circle cx="958.921" cy="7.64808" r="7.02704" fill="#F2F3F4"/>
<circle cx="918.414" cy="72.1905" r="7.02704" fill="#F2F3F4"/>
<circle cx="918.414" cy="50.6763" r="7.02704" fill="#F2F3F4"/>
<circle cx="938.667" cy="72.1905" r="7.02704" fill="#F2F3F4"/>
<circle cx="938.667" cy="50.6763" r="7.02704" fill="#F2F3F4"/>
<circle cx="958.921" cy="72.1905" r="7.02704" fill="#F2F3F4"/>
<circle cx="958.921" cy="50.6763" r="7.02704" fill="#F2F3F4"/>
<circle cx="918.414" cy="115.219" r="7.02704" fill="#F2F3F4"/>
<circle cx="918.414" cy="93.7046" r="7.02704" fill="#F2F3F4"/>
<circle cx="938.667" cy="115.219" r="7.02704" fill="#F2F3F4"/>
<circle cx="938.667" cy="93.7046" r="7.02704" fill="#F2F3F4"/>
<circle cx="958.921" cy="115.219" r="7.02704" fill="#F2F3F4"/>
<circle cx="958.921" cy="93.7046" r="7.02704" fill="#F2F3F4"/>
<circle cx="918.414" cy="158.247" r="7.02704" fill="#F2F3F4"/>
<circle cx="918.414" cy="136.733" r="7.02704" fill="#F2F3F4"/>
<circle cx="938.667" cy="158.247" r="7.02704" fill="#F2F3F4"/>
<circle cx="938.667" cy="136.733" r="7.02704" fill="#F2F3F4"/>
<circle cx="958.921" cy="158.247" r="7.02704" fill="#F2F3F4"/>
<circle cx="958.921" cy="136.733" r="7.02704" fill="#F2F3F4"/>
<circle cx="918.414" cy="201.275" r="7.02704" fill="#F2F3F4"/>
<circle cx="918.414" cy="179.761" r="7.02704" fill="#F2F3F4"/>
<circle cx="938.667" cy="201.275" r="7.02704" fill="#F2F3F4"/>
<circle cx="938.667" cy="179.761" r="7.02704" fill="#F2F3F4"/>
<circle cx="958.921" cy="201.275" r="7.02704" fill="#F2F3F4"/>
<circle cx="958.921" cy="179.761" r="7.02704" fill="#F2F3F4"/>
<circle cx="979.174" cy="28.5412" r="7.02704" fill="#F2F3F4"/>
<circle cx="979.174" cy="7.02704" r="7.02704" fill="#F2F3F4"/>
<circle cx="999.427" cy="28.5412" r="7.02704" fill="#F2F3F4"/>
<circle cx="999.427" cy="7.02704" r="7.02704" fill="#F2F3F4"/>
<circle cx="1019.68" cy="28.5412" r="7.02704" fill="#F2F3F4"/>
<circle cx="1019.68" cy="7.02704" r="7.02704" fill="#F2F3F4"/>
<circle cx="979.174" cy="71.5695" r="7.02704" fill="#F2F3F4"/>
<circle cx="979.174" cy="50.0553" r="7.02704" fill="#F2F3F4"/>
<circle cx="999.427" cy="71.5695" r="7.02704" fill="#F2F3F4"/>
<circle cx="999.427" cy="50.0553" r="7.02704" fill="#F2F3F4"/>
<circle cx="1019.68" cy="71.5695" r="7.02704" fill="#F2F3F4"/>
<circle cx="1019.68" cy="50.0553" r="7.02704" fill="#F2F3F4"/>
<circle cx="979.174" cy="114.598" r="7.02704" fill="#F2F3F4"/>
<circle cx="979.174" cy="93.0836" r="7.02704" fill="#F2F3F4"/>
<circle cx="999.427" cy="114.598" r="7.02704" fill="#F2F3F4"/>
<circle cx="999.427" cy="93.0836" r="7.02704" fill="#F2F3F4"/>
<circle cx="1019.68" cy="114.598" r="7.02704" fill="#F2F3F4"/>
<circle cx="1019.68" cy="93.0836" r="7.02704" fill="#F2F3F4"/>
<circle cx="979.174" cy="157.626" r="7.02704" fill="#F2F3F4"/>
<circle cx="979.174" cy="136.112" r="7.02704" fill="#F2F3F4"/>
<circle cx="999.427" cy="157.626" r="7.02704" fill="#F2F3F4"/>
<circle cx="999.427" cy="136.112" r="7.02704" fill="#F2F3F4"/>
<circle cx="1019.68" cy="157.626" r="7.02704" fill="#F2F3F4"/>
<circle cx="1019.68" cy="136.112" r="7.02704" fill="#F2F3F4"/>
<circle cx="979.174" cy="200.654" r="7.02704" fill="#F2F3F4"/>
<circle cx="979.174" cy="179.14" r="7.02704" fill="#F2F3F4"/>
<circle cx="999.427" cy="200.654" r="7.02704" fill="#F2F3F4"/>
<circle cx="999.427" cy="179.14" r="7.02704" fill="#F2F3F4"/>
<circle cx="1019.68" cy="200.654" r="7.02704" fill="#F2F3F4"/>
<circle cx="1019.68" cy="179.14" r="7.02704" fill="#F2F3F4"/>
<circle cx="1039.93" cy="28.5412" r="7.02704" fill="#F2F3F4"/>
<circle cx="1039.93" cy="7.02704" r="7.02704" fill="#F2F3F4"/>
<circle cx="1060.19" cy="28.5412" r="7.02704" fill="#F2F3F4"/>
<circle cx="1060.19" cy="7.02704" r="7.02704" fill="#F2F3F4"/>
<circle cx="1080.44" cy="28.5412" r="7.02704" fill="#F2F3F4"/>
<circle cx="1080.44" cy="7.02704" r="7.02704" fill="#F2F3F4"/>
<circle cx="1039.93" cy="71.5695" r="7.02704" fill="#F2F3F4"/>
<circle cx="1039.93" cy="50.0553" r="7.02704" fill="#F2F3F4"/>
<circle cx="1060.19" cy="71.5695" r="7.02704" fill="#F2F3F4"/>
<circle cx="1060.19" cy="50.0553" r="7.02704" fill="#F2F3F4"/>
<circle cx="1080.44" cy="71.5695" r="7.02704" fill="#F2F3F4"/>
<circle cx="1080.44" cy="50.0553" r="7.02704" fill="#F2F3F4"/>
<circle cx="1039.93" cy="114.598" r="7.02704" fill="#F2F3F4"/>
<circle cx="1039.93" cy="93.0836" r="7.02704" fill="#F2F3F4"/>
<circle cx="1060.19" cy="114.598" r="7.02704" fill="#F2F3F4"/>
<circle cx="1060.19" cy="93.0836" r="7.02704" fill="#F2F3F4"/>
<circle cx="1080.44" cy="114.598" r="7.02704" fill="#F2F3F4"/>
<circle cx="1080.44" cy="93.0836" r="7.02704" fill="#F2F3F4"/>
<circle cx="1039.93" cy="157.626" r="7.02704" fill="#F2F3F4"/>
<circle cx="1039.93" cy="136.112" r="7.02704" fill="#F2F3F4"/>
<circle cx="1060.19" cy="157.626" r="7.02704" fill="#F2F3F4"/>
<circle cx="1060.19" cy="136.112" r="7.02704" fill="#F2F3F4"/>
<circle cx="1080.44" cy="157.626" r="7.02704" fill="#F2F3F4"/>
<circle cx="1080.44" cy="136.112" r="7.02704" fill="#F2F3F4"/>
<circle cx="1039.93" cy="200.654" r="7.02704" fill="#F2F3F4"/>
<circle cx="1039.93" cy="179.14" r="7.02704" fill="#F2F3F4"/>
<circle cx="1060.19" cy="200.654" r="7.02704" fill="#F2F3F4"/>
<circle cx="1060.19" cy="179.14" r="7.02704" fill="#F2F3F4"/>
<circle cx="1080.44" cy="200.654" r="7.02704" fill="#F2F3F4"/>
<circle cx="1080.44" cy="179.14" r="7.02704" fill="#F2F3F4"/>
<circle cx="1100.69" cy="28.5412" r="7.02704" fill="#F2F3F4"/>
<circle cx="1100.69" cy="7.02704" r="7.02704" fill="#F2F3F4"/>
<circle cx="1100.69" cy="71.5695" r="7.02704" fill="#F2F3F4"/>
<circle cx="1100.69" cy="50.0553" r="7.02704" fill="#F2F3F4"/>
<circle cx="1100.69" cy="114.598" r="7.02704" fill="#F2F3F4"/>
<circle cx="1100.69" cy="93.0836" r="7.02704" fill="#F2F3F4"/>
<circle cx="1100.69" cy="157.626" r="7.02704" fill="#F2F3F4"/>
<circle cx="1100.69" cy="136.112" r="7.02704" fill="#F2F3F4"/>
<circle cx="1100.69" cy="200.654" r="7.02704" fill="#F2F3F4"/>
<circle cx="1100.69" cy="179.14" r="7.02704" fill="#F2F3F4"/>
<circle cx="67.7862" cy="28.5412" r="7.02704" fill="#F2F3F4"/>
<circle cx="67.7862" cy="7.02704" r="7.02704" fill="#F2F3F4"/>
<circle cx="88.0393" cy="28.5412" r="7.02704" fill="#F2F3F4"/>
<circle cx="88.0393" cy="7.02704" r="7.02704" fill="#F2F3F4"/>
<circle cx="108.292" cy="28.5412" r="7.02704" fill="#F2F3F4"/>
<circle cx="108.292" cy="7.02704" r="7.02704" fill="#F2F3F4"/>
<circle cx="67.7862" cy="71.5695" r="7.02704" fill="#F2F3F4"/>
<circle cx="67.7862" cy="50.0553" r="7.02704" fill="#F2F3F4"/>
<circle cx="88.0393" cy="71.5695" r="7.02704" fill="#F2F3F4"/>
<circle cx="88.0393" cy="50.0553" r="7.02704" fill="#F2F3F4"/>
<circle cx="108.292" cy="71.5695" r="7.02704" fill="#F2F3F4"/>
<circle cx="108.292" cy="50.0553" r="7.02704" fill="#F2F3F4"/>
<circle cx="67.7862" cy="157.626" r="7.02704" fill="#F2F3F4"/>
<circle cx="67.7862" cy="136.112" r="7.02704" fill="#F2F3F4"/>
<circle cx="88.0393" cy="157.626" r="7.02704" fill="#F2F3F4"/>
<circle cx="88.0393" cy="136.112" r="7.02704" fill="#F2F3F4"/>
<circle cx="108.292" cy="157.626" r="7.02704" fill="#F2F3F4"/>
<circle cx="108.292" cy="136.112" r="7.02704" fill="#F2F3F4"/>
<circle cx="67.7862" cy="200.654" r="7.02704" fill="#F2F3F4"/>
<circle cx="67.7862" cy="179.14" r="7.02704" fill="#F2F3F4"/>
<circle cx="88.0393" cy="200.654" r="7.02704" fill="#F2F3F4"/>
<circle cx="88.0393" cy="179.14" r="7.02704" fill="#F2F3F4"/>
<circle cx="108.292" cy="200.654" r="7.02704" fill="#F2F3F4"/>
<circle cx="108.292" cy="179.14" r="7.02704" fill="#F2F3F4"/>
<circle cx="128.545" cy="28.5412" r="7.02704" fill="#F2F3F4"/>
<circle cx="128.545" cy="7.02704" r="7.02704" fill="#F2F3F4"/>
<circle cx="148.798" cy="28.5412" r="7.02704" fill="#F2F3F4"/>
<circle cx="148.798" cy="7.02704" r="7.02704" fill="#F2F3F4"/>
<circle cx="169.051" cy="28.5412" r="7.02704" fill="#F2F3F4"/>
<circle cx="169.051" cy="7.02704" r="7.02704" fill="#F2F3F4"/>
<circle cx="128.545" cy="71.5695" r="7.02704" fill="#F2F3F4"/>
<circle cx="128.545" cy="50.0553" r="7.02704" fill="#F2F3F4"/>
<circle cx="148.798" cy="71.5695" r="7.02704" fill="#F2F3F4"/>
<circle cx="148.798" cy="50.0553" r="7.02704" fill="#F2F3F4"/>
<circle cx="169.051" cy="71.5695" r="7.02704" fill="#F2F3F4"/>
<circle cx="169.051" cy="50.0553" r="7.02704" fill="#F2F3F4"/>
<circle cx="128.545" cy="114.598" r="7.02704" fill="#F2F3F4"/>
<circle cx="128.545" cy="93.0836" r="7.02704" fill="#F2F3F4"/>
<circle cx="148.798" cy="114.598" r="7.02704" fill="#F2F3F4"/>
<circle cx="148.798" cy="93.0836" r="7.02704" fill="#F2F3F4"/>
<circle cx="169.051" cy="114.598" r="7.02704" fill="#F2F3F4"/>
<circle cx="169.051" cy="93.0836" r="7.02704" fill="#F2F3F4"/>
<circle cx="128.545" cy="157.626" r="7.02704" fill="#F2F3F4"/>
<circle cx="128.545" cy="136.112" r="7.02704" fill="#F2F3F4"/>
<circle cx="148.798" cy="157.626" r="7.02704" fill="#F2F3F4"/>
<circle cx="148.798" cy="136.112" r="7.02704" fill="#F2F3F4"/>
<circle cx="169.051" cy="157.626" r="7.02704" fill="#F2F3F4"/>
<circle cx="169.051" cy="136.112" r="7.02704" fill="#F2F3F4"/>
<circle cx="128.545" cy="200.654" r="7.02704" fill="#F2F3F4"/>
<circle cx="128.545" cy="179.14" r="7.02704" fill="#F2F3F4"/>
<circle cx="148.798" cy="200.654" r="7.02704" fill="#F2F3F4"/>
<circle cx="148.798" cy="179.14" r="7.02704" fill="#F2F3F4"/>
<circle cx="169.051" cy="200.654" r="7.02704" fill="#F2F3F4"/>
<circle cx="169.051" cy="179.14" r="7.02704" fill="#F2F3F4"/>
<path d="M146.382 122.362C141.916 122.362 138.449 120.845 135.982 117.812C133.549 114.745 132.332 110.278 132.332 104.412C132.332 100.612 132.999 97.3617 134.332 94.6617C135.699 91.9617 137.516 89.9283 139.782 88.5617C142.082 87.195 144.616 86.5117 147.382 86.5117C149.616 86.5117 151.516 86.845 153.082 87.5117C154.682 88.145 156.199 89.145 157.632 90.5117L154.382 93.8617C153.316 92.895 152.232 92.195 151.132 91.7617C150.066 91.295 148.866 91.0617 147.532 91.0617C144.866 91.0617 142.666 92.145 140.932 94.3117C139.232 96.445 138.382 99.8117 138.382 104.412C138.382 109.145 139.049 112.578 140.382 114.712C141.749 116.812 143.832 117.862 146.632 117.862C148.766 117.862 150.666 117.378 152.332 116.412V106.912H146.482L145.882 102.462H157.982V119.212C156.216 120.212 154.399 120.995 152.532 121.562C150.699 122.095 148.649 122.362 146.382 122.362ZM180.613 94.6617C181.979 94.6617 183.313 94.8783 184.613 95.3117L183.663 105.062H179.663V99.6617C177.829 99.695 176.229 100.428 174.863 101.862C173.496 103.295 172.429 105.312 171.663 107.912V117.712H176.963V121.712H162.163V117.712H166.063V99.3117H162.163V95.3117H170.313L171.313 101.412C172.346 99.145 173.596 97.4617 175.063 96.3617C176.563 95.2283 178.413 94.6617 180.613 94.6617ZM209.093 115.262C209.093 116.262 209.243 117.012 209.543 117.512C209.843 117.978 210.36 118.328 211.093 118.562L209.793 122.362C207.027 122.028 205.21 120.812 204.343 118.712C203.377 119.912 202.16 120.828 200.693 121.462C199.26 122.062 197.677 122.362 195.943 122.362C193.277 122.362 191.16 121.612 189.593 120.112C188.027 118.612 187.243 116.628 187.243 114.162C187.243 111.395 188.327 109.262 190.493 107.762C192.693 106.262 195.793 105.512 199.793 105.512H203.543V103.812C203.543 102.145 203.043 100.928 202.043 100.162C201.043 99.395 199.593 99.0117 197.693 99.0117C196.76 99.0117 195.677 99.1283 194.443 99.3617C193.21 99.595 191.96 99.9283 190.693 100.362L189.293 96.4117C192.46 95.2117 195.543 94.6117 198.543 94.6117C202.043 94.6117 204.677 95.3783 206.443 96.9117C208.21 98.445 209.093 100.628 209.093 103.462V115.262ZM197.593 118.262C198.76 118.262 199.877 117.962 200.943 117.362C202.043 116.762 202.91 115.928 203.543 114.862V109.012H200.443C197.91 109.012 196.06 109.445 194.893 110.312C193.727 111.145 193.143 112.362 193.143 113.962C193.143 115.362 193.51 116.428 194.243 117.162C195.01 117.895 196.127 118.262 197.593 118.262ZM215.874 95.3117H220.724L221.124 98.7617C222.224 97.4283 223.507 96.4117 224.974 95.7117C226.474 94.9783 228.04 94.6117 229.674 94.6117C232.107 94.6117 233.94 95.295 235.174 96.6617C236.407 98.0283 237.024 99.9617 237.024 102.462V121.712H231.424V105.262C231.424 103.628 231.324 102.378 231.124 101.512C230.957 100.612 230.607 99.9617 230.074 99.5617C229.54 99.1283 228.74 98.9117 227.674 98.9117C226.474 98.9117 225.324 99.2783 224.224 100.012C223.157 100.745 222.24 101.662 221.474 102.762V121.712H215.874V95.3117ZM253.404 82.3617C254.471 82.3617 255.338 82.7117 256.004 83.4117C256.704 84.0783 257.054 84.9117 257.054 85.9117C257.054 86.9117 256.704 87.745 256.004 88.4117C255.338 89.0783 254.471 89.4117 253.404 89.4117C252.304 89.4117 251.421 89.0783 250.754 88.4117C250.088 87.745 249.754 86.9117 249.754 85.9117C249.754 84.8783 250.088 84.0283 250.754 83.3617C251.454 82.695 252.338 82.3617 253.404 82.3617ZM257.254 95.3117V117.612H264.454V121.712H243.804V117.612H251.654V99.4117H244.054V95.3117H257.254ZM286.885 120.312C285.885 120.945 284.718 121.445 283.385 121.812C282.051 122.178 280.651 122.362 279.185 122.362C276.185 122.362 273.868 121.595 272.235 120.062C270.601 118.495 269.785 116.378 269.785 113.712V99.4117H263.935V95.3117H269.785V89.4117L275.385 88.7617V95.3117H284.335L283.685 99.4117H275.385V113.662C275.385 115.095 275.751 116.162 276.485 116.862C277.218 117.528 278.385 117.862 279.985 117.862C281.751 117.862 283.385 117.445 284.885 116.612L286.885 120.312Z" fill="black"/>
<circle cx="67.7862" cy="93.1705" r="7.02704" fill="#5BED96"/>
<circle cx="67.7862" cy="114.685" r="7.02704" fill="#5BED96"/>
<circle cx="88.0393" cy="114.685" r="7.02704" fill="#25A3FF"/>
<circle cx="108.292" cy="114.685" r="7.02704" fill="#6745F2"/>
<circle cx="108.292" cy="93.1705" r="7.02704" fill="#6745F2"/>
<circle cx="88.0393" cy="93.1705" r="7.02704" fill="#25A3FF"/>
</g>
<defs>
<clipPath id="clip0">
<rect width="1108" height="208" fill="white"/>
</clipPath>
</defs>
</svg>
