<svg width="1108" height="208" viewBox="0 0 1108 208" fill="none" xmlns="http://www.w3.org/2000/svg">
<rect width="1108" height="208" fill="white"/>
<circle cx="7.02704" cy="28.5412" r="7.02704" fill="#F2F3F4"/>
<circle cx="7.02704" cy="7.02704" r="7.02704" fill="#F2F3F4"/>
<circle cx="27.28" cy="28.5412" r="7.02704" fill="#F2F3F4"/>
<circle cx="27.28" cy="7.02704" r="7.02704" fill="#F2F3F4"/>
<circle cx="47.5329" cy="28.5412" r="7.02704" fill="#F2F3F4"/>
<circle cx="47.5329" cy="7.02704" r="7.02704" fill="#F2F3F4"/>
<circle cx="7.02704" cy="71.5695" r="7.02704" fill="#F2F3F4"/>
<circle cx="7.02704" cy="50.0554" r="7.02704" fill="#F2F3F4"/>
<circle cx="27.28" cy="71.5695" r="7.02704" fill="#F2F3F4"/>
<circle cx="27.28" cy="50.0554" r="7.02704" fill="#F2F3F4"/>
<circle cx="47.5329" cy="71.5695" r="7.02704" fill="#F2F3F4"/>
<circle cx="47.5329" cy="50.0554" r="7.02704" fill="#F2F3F4"/>
<circle cx="7.02704" cy="114.598" r="7.02704" fill="#F2F3F4"/>
<circle cx="7.02704" cy="93.0836" r="7.02704" fill="#F2F3F4"/>
<circle cx="27.28" cy="114.598" r="7.02704" fill="#F2F3F4"/>
<circle cx="27.28" cy="93.0836" r="7.02704" fill="#F2F3F4"/>
<circle cx="47.5329" cy="114.598" r="7.02704" fill="#F2F3F4"/>
<circle cx="47.5329" cy="93.0836" r="7.02704" fill="#F2F3F4"/>
<circle cx="7.02704" cy="157.626" r="7.02704" fill="#F2F3F4"/>
<circle cx="7.02704" cy="136.112" r="7.02704" fill="#F2F3F4"/>
<circle cx="27.28" cy="157.626" r="7.02704" fill="#F2F3F4"/>
<circle cx="27.28" cy="136.112" r="7.02704" fill="#F2F3F4"/>
<circle cx="47.5329" cy="157.626" r="7.02704" fill="#F2F3F4"/>
<circle cx="47.5329" cy="136.112" r="7.02704" fill="#F2F3F4"/>
<circle cx="7.02704" cy="200.654" r="7.02704" fill="#F2F3F4"/>
<circle cx="7.02704" cy="179.14" r="7.02704" fill="#F2F3F4"/>
<circle cx="27.28" cy="200.654" r="7.02704" fill="#F2F3F4"/>
<circle cx="27.28" cy="179.14" r="7.02704" fill="#F2F3F4"/>
<circle cx="47.5329" cy="200.654" r="7.02704" fill="#F2F3F4"/>
<circle cx="47.5329" cy="179.14" r="7.02704" fill="#F2F3F4"/>
<circle cx="189.304" cy="28.5412" r="7.02704" fill="#F2F3F4"/>
<circle cx="189.304" cy="7.02704" r="7.02704" fill="#F2F3F4"/>
<circle cx="209.557" cy="28.5412" r="7.02704" fill="#F2F3F4"/>
<circle cx="209.557" cy="7.02704" r="7.02704" fill="#F2F3F4"/>
<circle cx="229.811" cy="28.5412" r="7.02704" fill="#F2F3F4"/>
<circle cx="229.811" cy="7.02704" r="7.02704" fill="#F2F3F4"/>
<circle cx="189.304" cy="71.5695" r="7.02704" fill="#F2F3F4"/>
<circle cx="189.304" cy="50.0554" r="7.02704" fill="#F2F3F4"/>
<circle cx="209.557" cy="71.5695" r="7.02704" fill="#F2F3F4"/>
<circle cx="209.557" cy="50.0554" r="7.02704" fill="#F2F3F4"/>
<circle cx="229.811" cy="71.5695" r="7.02704" fill="#F2F3F4"/>
<circle cx="229.811" cy="50.0554" r="7.02704" fill="#F2F3F4"/>
<circle cx="189.304" cy="114.598" r="7.02704" fill="#F2F3F4"/>
<circle cx="189.304" cy="93.0836" r="7.02704" fill="#F2F3F4"/>
<circle cx="209.557" cy="114.598" r="7.02704" fill="#F2F3F4"/>
<circle cx="209.557" cy="93.0836" r="7.02704" fill="#F2F3F4"/>
<circle cx="229.811" cy="114.598" r="7.02704" fill="#F2F3F4"/>
<circle cx="229.811" cy="93.0836" r="7.02704" fill="#F2F3F4"/>
<circle cx="189.304" cy="157.626" r="7.02704" fill="#F2F3F4"/>
<circle cx="189.304" cy="136.112" r="7.02704" fill="#F2F3F4"/>
<circle cx="209.557" cy="157.626" r="7.02704" fill="#F2F3F4"/>
<circle cx="209.557" cy="136.112" r="7.02704" fill="#F2F3F4"/>
<circle cx="229.811" cy="157.626" r="7.02704" fill="#F2F3F4"/>
<circle cx="229.811" cy="136.112" r="7.02704" fill="#F2F3F4"/>
<circle cx="189.304" cy="200.654" r="7.02704" fill="#F2F3F4"/>
<circle cx="189.304" cy="179.14" r="7.02704" fill="#F2F3F4"/>
<circle cx="209.557" cy="200.654" r="7.02704" fill="#F2F3F4"/>
<circle cx="209.557" cy="179.14" r="7.02704" fill="#F2F3F4"/>
<circle cx="229.811" cy="200.654" r="7.02704" fill="#F2F3F4"/>
<circle cx="229.811" cy="179.14" r="7.02704" fill="#F2F3F4"/>
<circle cx="250.064" cy="28.5412" r="7.02704" fill="#F2F3F4"/>
<circle cx="250.064" cy="7.02704" r="7.02704" fill="#F2F3F4"/>
<circle cx="270.317" cy="28.5412" r="7.02704" fill="#F2F3F4"/>
<circle cx="270.317" cy="7.02704" r="7.02704" fill="#F2F3F4"/>
<circle cx="290.57" cy="28.5412" r="7.02704" fill="#F2F3F4"/>
<circle cx="290.57" cy="7.02704" r="7.02704" fill="#F2F3F4"/>
<circle cx="250.064" cy="71.5695" r="7.02704" fill="#F2F3F4"/>
<circle cx="250.064" cy="50.0554" r="7.02704" fill="#F2F3F4"/>
<circle cx="270.317" cy="71.5695" r="7.02704" fill="#F2F3F4"/>
<circle cx="270.317" cy="50.0554" r="7.02704" fill="#F2F3F4"/>
<circle cx="290.57" cy="71.5695" r="7.02704" fill="#F2F3F4"/>
<circle cx="290.57" cy="50.0554" r="7.02704" fill="#F2F3F4"/>
<circle cx="250.064" cy="114.598" r="7.02704" fill="#F2F3F4"/>
<circle cx="250.064" cy="93.0836" r="7.02704" fill="#F2F3F4"/>
<circle cx="270.317" cy="114.598" r="7.02704" fill="#F2F3F4"/>
<circle cx="270.317" cy="93.0836" r="7.02704" fill="#F2F3F4"/>
<circle cx="290.57" cy="114.598" r="7.02704" fill="#F2F3F4"/>
<circle cx="290.57" cy="93.0836" r="7.02704" fill="#F2F3F4"/>
<circle cx="250.064" cy="157.626" r="7.02704" fill="#F2F3F4"/>
<circle cx="250.064" cy="136.112" r="7.02704" fill="#F2F3F4"/>
<circle cx="270.317" cy="157.626" r="7.02704" fill="#F2F3F4"/>
<circle cx="270.317" cy="136.112" r="7.02704" fill="#F2F3F4"/>
<circle cx="290.57" cy="157.626" r="7.02704" fill="#F2F3F4"/>
<circle cx="290.57" cy="136.112" r="7.02704" fill="#F2F3F4"/>
<circle cx="250.064" cy="200.654" r="7.02704" fill="#F2F3F4"/>
<circle cx="250.064" cy="179.14" r="7.02704" fill="#F2F3F4"/>
<circle cx="270.317" cy="200.654" r="7.02704" fill="#F2F3F4"/>
<circle cx="270.317" cy="179.14" r="7.02704" fill="#F2F3F4"/>
<circle cx="290.57" cy="200.654" r="7.02704" fill="#F2F3F4"/>
<circle cx="290.57" cy="179.14" r="7.02704" fill="#F2F3F4"/>
<circle cx="310.823" cy="28.5412" r="7.02704" fill="#F2F3F4"/>
<circle cx="310.823" cy="7.02704" r="7.02704" fill="#F2F3F4"/>
<circle cx="331.076" cy="28.5412" r="7.02704" fill="#F2F3F4"/>
<circle cx="331.076" cy="7.02704" r="7.02704" fill="#F2F3F4"/>
<circle cx="351.329" cy="28.5412" r="7.02704" fill="#F2F3F4"/>
<circle cx="351.329" cy="7.02704" r="7.02704" fill="#F2F3F4"/>
<circle cx="310.823" cy="71.5695" r="7.02704" fill="#F2F3F4"/>
<circle cx="310.823" cy="50.0554" r="7.02704" fill="#F2F3F4"/>
<circle cx="331.076" cy="71.5695" r="7.02704" fill="#F2F3F4"/>
<circle cx="331.076" cy="50.0554" r="7.02704" fill="#F2F3F4"/>
<circle cx="351.329" cy="71.5695" r="7.02704" fill="#F2F3F4"/>
<circle cx="351.329" cy="50.0554" r="7.02704" fill="#F2F3F4"/>
<circle cx="310.823" cy="114.598" r="7.02704" fill="#F2F3F4"/>
<circle cx="310.823" cy="93.0836" r="7.02704" fill="#F2F3F4"/>
<circle cx="331.076" cy="114.598" r="7.02704" fill="#F2F3F4"/>
<circle cx="331.076" cy="93.0836" r="7.02704" fill="#F2F3F4"/>
<circle cx="351.329" cy="114.598" r="7.02704" fill="#F2F3F4"/>
<circle cx="351.329" cy="93.0836" r="7.02704" fill="#F2F3F4"/>
<circle cx="310.823" cy="157.626" r="7.02704" fill="#F2F3F4"/>
<circle cx="310.823" cy="136.112" r="7.02704" fill="#F2F3F4"/>
<circle cx="331.076" cy="157.626" r="7.02704" fill="#F2F3F4"/>
<circle cx="331.076" cy="136.112" r="7.02704" fill="#F2F3F4"/>
<circle cx="351.329" cy="157.626" r="7.02704" fill="#F2F3F4"/>
<circle cx="351.329" cy="136.112" r="7.02704" fill="#F2F3F4"/>
<circle cx="310.823" cy="200.654" r="7.02704" fill="#F2F3F4"/>
<circle cx="310.823" cy="179.14" r="7.02704" fill="#F2F3F4"/>
<circle cx="331.076" cy="200.654" r="7.02704" fill="#F2F3F4"/>
<circle cx="331.076" cy="179.14" r="7.02704" fill="#F2F3F4"/>
<circle cx="351.329" cy="200.654" r="7.02704" fill="#F2F3F4"/>
<circle cx="351.329" cy="179.14" r="7.02704" fill="#F2F3F4"/>
<circle cx="371.582" cy="28.5412" r="7.02704" fill="#F2F3F4"/>
<circle cx="371.582" cy="7.02704" r="7.02704" fill="#F2F3F4"/>
<circle cx="391.835" cy="28.5412" r="7.02704" fill="#F2F3F4"/>
<circle cx="391.835" cy="7.02704" r="7.02704" fill="#F2F3F4"/>
<circle cx="412.088" cy="28.5412" r="7.02704" fill="#F2F3F4"/>
<circle cx="412.088" cy="7.02704" r="7.02704" fill="#F2F3F4"/>
<circle cx="371.582" cy="71.5695" r="7.02704" fill="#F2F3F4"/>
<circle cx="371.582" cy="50.0554" r="7.02704" fill="#F2F3F4"/>
<circle cx="391.835" cy="71.5695" r="7.02704" fill="#F2F3F4"/>
<circle cx="391.835" cy="50.0554" r="7.02704" fill="#F2F3F4"/>
<circle cx="412.088" cy="71.5695" r="7.02704" fill="#F2F3F4"/>
<circle cx="412.088" cy="50.0554" r="7.02704" fill="#F2F3F4"/>
<circle cx="371.582" cy="114.598" r="7.02704" fill="#F2F3F4"/>
<circle cx="371.582" cy="93.0836" r="7.02704" fill="#F2F3F4"/>
<circle cx="391.835" cy="114.598" r="7.02704" fill="#F2F3F4"/>
<circle cx="391.835" cy="93.0836" r="7.02704" fill="#F2F3F4"/>
<circle cx="412.088" cy="114.598" r="7.02704" fill="#F2F3F4"/>
<circle cx="412.088" cy="93.0836" r="7.02704" fill="#F2F3F4"/>
<circle cx="371.582" cy="157.626" r="7.02704" fill="#F2F3F4"/>
<circle cx="371.582" cy="136.112" r="7.02704" fill="#F2F3F4"/>
<circle cx="391.835" cy="157.626" r="7.02704" fill="#F2F3F4"/>
<circle cx="391.835" cy="136.112" r="7.02704" fill="#F2F3F4"/>
<circle cx="412.088" cy="157.626" r="7.02704" fill="#F2F3F4"/>
<circle cx="412.088" cy="136.112" r="7.02704" fill="#F2F3F4"/>
<circle cx="371.582" cy="200.654" r="7.02704" fill="#F2F3F4"/>
<circle cx="371.582" cy="179.14" r="7.02704" fill="#F2F3F4"/>
<circle cx="391.835" cy="200.654" r="7.02704" fill="#F2F3F4"/>
<circle cx="391.835" cy="179.14" r="7.02704" fill="#F2F3F4"/>
<circle cx="412.088" cy="200.654" r="7.02704" fill="#F2F3F4"/>
<circle cx="412.088" cy="179.14" r="7.02704" fill="#F2F3F4"/>
<circle cx="432.341" cy="28.5412" r="7.02704" fill="#F2F3F4"/>
<circle cx="432.341" cy="7.02704" r="7.02704" fill="#F2F3F4"/>
<circle cx="452.594" cy="28.5412" r="7.02704" fill="#F2F3F4"/>
<circle cx="452.594" cy="7.02704" r="7.02704" fill="#F2F3F4"/>
<circle cx="472.847" cy="28.5412" r="7.02704" fill="#F2F3F4"/>
<circle cx="472.847" cy="7.02704" r="7.02704" fill="#F2F3F4"/>
<circle cx="432.341" cy="71.5695" r="7.02704" fill="#F2F3F4"/>
<circle cx="432.341" cy="50.0554" r="7.02704" fill="#F2F3F4"/>
<circle cx="452.594" cy="71.5695" r="7.02704" fill="#F2F3F4"/>
<circle cx="452.594" cy="50.0554" r="7.02704" fill="#F2F3F4"/>
<circle cx="472.847" cy="71.5695" r="7.02704" fill="#F2F3F4"/>
<circle cx="472.847" cy="50.0554" r="7.02704" fill="#F2F3F4"/>
<circle cx="432.341" cy="114.598" r="7.02704" fill="#F2F3F4"/>
<circle cx="432.341" cy="93.0836" r="7.02704" fill="#F2F3F4"/>
<circle cx="452.594" cy="114.598" r="7.02704" fill="#F2F3F4"/>
<circle cx="452.594" cy="93.0836" r="7.02704" fill="#F2F3F4"/>
<circle cx="472.847" cy="114.598" r="7.02704" fill="#F2F3F4"/>
<circle cx="472.847" cy="93.0836" r="7.02704" fill="#F2F3F4"/>
<circle cx="432.341" cy="157.626" r="7.02704" fill="#F2F3F4"/>
<circle cx="432.341" cy="136.112" r="7.02704" fill="#F2F3F4"/>
<circle cx="452.594" cy="157.626" r="7.02704" fill="#F2F3F4"/>
<circle cx="452.594" cy="136.112" r="7.02704" fill="#F2F3F4"/>
<circle cx="472.847" cy="157.626" r="7.02704" fill="#F2F3F4"/>
<circle cx="472.847" cy="136.112" r="7.02704" fill="#F2F3F4"/>
<circle cx="432.341" cy="200.654" r="7.02704" fill="#F2F3F4"/>
<circle cx="432.341" cy="179.14" r="7.02704" fill="#F2F3F4"/>
<circle cx="452.594" cy="200.654" r="7.02704" fill="#F2F3F4"/>
<circle cx="452.594" cy="179.14" r="7.02704" fill="#F2F3F4"/>
<circle cx="472.847" cy="200.654" r="7.02704" fill="#F2F3F4"/>
<circle cx="472.847" cy="179.14" r="7.02704" fill="#F2F3F4"/>
<circle cx="493.1" cy="28.5412" r="7.02704" fill="#F2F3F4"/>
<circle cx="493.1" cy="7.02704" r="7.02704" fill="#F2F3F4"/>
<circle cx="513.353" cy="28.5412" r="7.02704" fill="#F2F3F4"/>
<circle cx="513.353" cy="7.02704" r="7.02704" fill="#F2F3F4"/>
<circle cx="533.606" cy="28.5412" r="7.02704" fill="#F2F3F4"/>
<circle cx="533.606" cy="7.02704" r="7.02704" fill="#F2F3F4"/>
<circle cx="493.1" cy="71.5695" r="7.02704" fill="#F2F3F4"/>
<circle cx="493.1" cy="50.0554" r="7.02704" fill="#F2F3F4"/>
<circle cx="513.353" cy="71.5695" r="7.02704" fill="#F2F3F4"/>
<circle cx="513.353" cy="50.0554" r="7.02704" fill="#F2F3F4"/>
<circle cx="533.606" cy="71.5695" r="7.02704" fill="#F2F3F4"/>
<circle cx="533.606" cy="50.0554" r="7.02704" fill="#F2F3F4"/>
<circle cx="493.1" cy="114.598" r="7.02704" fill="#F2F3F4"/>
<circle cx="493.1" cy="93.0836" r="7.02704" fill="#F2F3F4"/>
<circle cx="513.353" cy="114.598" r="7.02704" fill="#F2F3F4"/>
<circle cx="513.353" cy="93.0836" r="7.02704" fill="#F2F3F4"/>
<circle cx="533.606" cy="114.598" r="7.02704" fill="#F2F3F4"/>
<circle cx="533.606" cy="93.0836" r="7.02704" fill="#F2F3F4"/>
<circle cx="493.1" cy="157.626" r="7.02704" fill="#F2F3F4"/>
<circle cx="493.1" cy="136.112" r="7.02704" fill="#F2F3F4"/>
<circle cx="513.353" cy="157.626" r="7.02704" fill="#F2F3F4"/>
<circle cx="513.353" cy="136.112" r="7.02704" fill="#F2F3F4"/>
<circle cx="533.606" cy="157.626" r="7.02704" fill="#F2F3F4"/>
<circle cx="533.606" cy="136.112" r="7.02704" fill="#F2F3F4"/>
<circle cx="493.1" cy="200.654" r="7.02704" fill="#F2F3F4"/>
<circle cx="493.1" cy="179.14" r="7.02704" fill="#F2F3F4"/>
<circle cx="513.353" cy="200.654" r="7.02704" fill="#F2F3F4"/>
<circle cx="513.353" cy="179.14" r="7.02704" fill="#F2F3F4"/>
<circle cx="533.606" cy="200.654" r="7.02704" fill="#F2F3F4"/>
<circle cx="533.606" cy="179.14" r="7.02704" fill="#F2F3F4"/>
<circle cx="553.86" cy="28.5412" r="7.02704" fill="#F2F3F4"/>
<circle cx="553.86" cy="7.02704" r="7.02704" fill="#F2F3F4"/>
<circle cx="574.112" cy="28.5412" r="7.02704" fill="#F2F3F4"/>
<circle cx="574.112" cy="7.02704" r="7.02704" fill="#F2F3F4"/>
<circle cx="594.365" cy="28.5412" r="7.02704" fill="#F2F3F4"/>
<circle cx="594.365" cy="7.02704" r="7.02704" fill="#F2F3F4"/>
<circle cx="553.86" cy="71.5695" r="7.02704" fill="#F2F3F4"/>
<circle cx="553.86" cy="50.0554" r="7.02704" fill="#F2F3F4"/>
<circle cx="574.112" cy="71.5695" r="7.02704" fill="#F2F3F4"/>
<circle cx="574.112" cy="50.0554" r="7.02704" fill="#F2F3F4"/>
<circle cx="594.365" cy="71.5695" r="7.02704" fill="#F2F3F4"/>
<circle cx="594.365" cy="50.0554" r="7.02704" fill="#F2F3F4"/>
<circle cx="553.86" cy="114.598" r="7.02704" fill="#F2F3F4"/>
<circle cx="553.86" cy="93.0836" r="7.02704" fill="#F2F3F4"/>
<circle cx="574.112" cy="114.598" r="7.02704" fill="#F2F3F4"/>
<circle cx="574.112" cy="93.0836" r="7.02704" fill="#F2F3F4"/>
<circle cx="594.365" cy="114.598" r="7.02704" fill="#F2F3F4"/>
<circle cx="594.365" cy="93.0836" r="7.02704" fill="#F2F3F4"/>
<circle cx="553.86" cy="157.626" r="7.02704" fill="#F2F3F4"/>
<circle cx="553.86" cy="136.112" r="7.02704" fill="#F2F3F4"/>
<circle cx="574.112" cy="157.626" r="7.02704" fill="#F2F3F4"/>
<circle cx="574.112" cy="136.112" r="7.02704" fill="#F2F3F4"/>
<circle cx="594.365" cy="157.626" r="7.02704" fill="#F2F3F4"/>
<circle cx="594.365" cy="136.112" r="7.02704" fill="#F2F3F4"/>
<circle cx="553.86" cy="200.654" r="7.02704" fill="#F2F3F4"/>
<circle cx="553.86" cy="179.14" r="7.02704" fill="#F2F3F4"/>
<circle cx="574.112" cy="200.654" r="7.02704" fill="#F2F3F4"/>
<circle cx="574.112" cy="179.14" r="7.02704" fill="#F2F3F4"/>
<circle cx="594.365" cy="200.654" r="7.02704" fill="#F2F3F4"/>
<circle cx="594.365" cy="179.14" r="7.02704" fill="#F2F3F4"/>
<circle cx="614.619" cy="28.5412" r="7.02704" fill="#F2F3F4"/>
<circle cx="614.619" cy="7.02704" r="7.02704" fill="#F2F3F4"/>
<circle cx="634.872" cy="28.5412" r="7.02704" fill="#F2F3F4"/>
<circle cx="634.872" cy="7.02704" r="7.02704" fill="#F2F3F4"/>
<circle cx="655.125" cy="28.5412" r="7.02704" fill="#F2F3F4"/>
<circle cx="655.125" cy="7.02704" r="7.02704" fill="#F2F3F4"/>
<circle cx="614.619" cy="71.5695" r="7.02704" fill="#F2F3F4"/>
<circle cx="614.619" cy="50.0554" r="7.02704" fill="#F2F3F4"/>
<circle cx="634.872" cy="71.5695" r="7.02704" fill="#F2F3F4"/>
<circle cx="634.872" cy="50.0554" r="7.02704" fill="#F2F3F4"/>
<circle cx="655.125" cy="71.5695" r="7.02704" fill="#F2F3F4"/>
<circle cx="655.125" cy="50.0554" r="7.02704" fill="#F2F3F4"/>
<circle cx="614.619" cy="114.598" r="7.02704" fill="#F2F3F4"/>
<circle cx="614.619" cy="93.0836" r="7.02704" fill="#F2F3F4"/>
<circle cx="634.872" cy="114.598" r="7.02704" fill="#F2F3F4"/>
<circle cx="634.872" cy="93.0836" r="7.02704" fill="#F2F3F4"/>
<circle cx="655.125" cy="114.598" r="7.02704" fill="#F2F3F4"/>
<circle cx="655.125" cy="93.0836" r="7.02704" fill="#F2F3F4"/>
<circle cx="614.619" cy="157.626" r="7.02704" fill="#F2F3F4"/>
<circle cx="614.619" cy="136.112" r="7.02704" fill="#F2F3F4"/>
<circle cx="634.872" cy="157.626" r="7.02704" fill="#F2F3F4"/>
<circle cx="634.872" cy="136.112" r="7.02704" fill="#F2F3F4"/>
<circle cx="655.125" cy="157.626" r="7.02704" fill="#F2F3F4"/>
<circle cx="655.125" cy="136.112" r="7.02704" fill="#F2F3F4"/>
<circle cx="614.619" cy="200.654" r="7.02704" fill="#F2F3F4"/>
<circle cx="614.619" cy="179.14" r="7.02704" fill="#F2F3F4"/>
<circle cx="634.872" cy="200.654" r="7.02704" fill="#F2F3F4"/>
<circle cx="634.872" cy="179.14" r="7.02704" fill="#F2F3F4"/>
<circle cx="655.125" cy="200.654" r="7.02704" fill="#F2F3F4"/>
<circle cx="655.125" cy="179.14" r="7.02704" fill="#F2F3F4"/>
<circle cx="675.378" cy="28.5412" r="7.02704" fill="#F2F3F4"/>
<circle cx="675.378" cy="7.02704" r="7.02704" fill="#F2F3F4"/>
<circle cx="695.631" cy="28.5412" r="7.02704" fill="#F2F3F4"/>
<circle cx="695.631" cy="7.02704" r="7.02704" fill="#F2F3F4"/>
<circle cx="715.884" cy="28.5412" r="7.02704" fill="#F2F3F4"/>
<circle cx="715.884" cy="7.02704" r="7.02704" fill="#F2F3F4"/>
<circle cx="675.378" cy="71.5695" r="7.02704" fill="#F2F3F4"/>
<circle cx="675.378" cy="50.0554" r="7.02704" fill="#F2F3F4"/>
<circle cx="695.631" cy="71.5695" r="7.02704" fill="#F2F3F4"/>
<circle cx="695.631" cy="50.0554" r="7.02704" fill="#F2F3F4"/>
<circle cx="715.884" cy="71.5695" r="7.02704" fill="#F2F3F4"/>
<circle cx="715.884" cy="50.0554" r="7.02704" fill="#F2F3F4"/>
<circle cx="675.378" cy="114.598" r="7.02704" fill="#F2F3F4"/>
<circle cx="675.378" cy="93.0836" r="7.02704" fill="#F2F3F4"/>
<circle cx="695.631" cy="114.598" r="7.02704" fill="#F2F3F4"/>
<circle cx="695.631" cy="93.0836" r="7.02704" fill="#F2F3F4"/>
<circle cx="715.884" cy="114.598" r="7.02704" fill="#F2F3F4"/>
<circle cx="715.884" cy="93.0836" r="7.02704" fill="#F2F3F4"/>
<circle cx="675.378" cy="157.626" r="7.02704" fill="#F2F3F4"/>
<circle cx="675.378" cy="136.112" r="7.02704" fill="#F2F3F4"/>
<circle cx="695.631" cy="157.626" r="7.02704" fill="#F2F3F4"/>
<circle cx="695.631" cy="136.112" r="7.02704" fill="#F2F3F4"/>
<circle cx="715.884" cy="157.626" r="7.02704" fill="#F2F3F4"/>
<circle cx="715.884" cy="136.112" r="7.02704" fill="#F2F3F4"/>
<circle cx="675.378" cy="200.654" r="7.02704" fill="#F2F3F4"/>
<circle cx="675.378" cy="179.14" r="7.02704" fill="#F2F3F4"/>
<circle cx="695.631" cy="200.654" r="7.02704" fill="#F2F3F4"/>
<circle cx="695.631" cy="179.14" r="7.02704" fill="#F2F3F4"/>
<circle cx="715.884" cy="200.654" r="7.02704" fill="#F2F3F4"/>
<circle cx="715.884" cy="179.14" r="7.02704" fill="#F2F3F4"/>
<circle cx="736.137" cy="28.5412" r="7.02704" fill="#F2F3F4"/>
<circle cx="736.137" cy="7.02704" r="7.02704" fill="#F2F3F4"/>
<circle cx="756.39" cy="28.5412" r="7.02704" fill="#F2F3F4"/>
<circle cx="756.39" cy="7.02704" r="7.02704" fill="#F2F3F4"/>
<circle cx="776.643" cy="28.5412" r="7.02704" fill="#F2F3F4"/>
<circle cx="776.643" cy="7.02704" r="7.02704" fill="#F2F3F4"/>
<circle cx="736.137" cy="71.5695" r="7.02704" fill="#F2F3F4"/>
<circle cx="736.137" cy="50.0554" r="7.02704" fill="#F2F3F4"/>
<circle cx="756.39" cy="71.5695" r="7.02704" fill="#F2F3F4"/>
<circle cx="756.39" cy="50.0554" r="7.02704" fill="#F2F3F4"/>
<circle cx="776.643" cy="71.5695" r="7.02704" fill="#F2F3F4"/>
<circle cx="776.643" cy="50.0554" r="7.02704" fill="#F2F3F4"/>
<circle cx="736.137" cy="114.598" r="7.02704" fill="#F2F3F4"/>
<circle cx="736.137" cy="93.0836" r="7.02704" fill="#F2F3F4"/>
<circle cx="756.39" cy="114.598" r="7.02704" fill="#F2F3F4"/>
<circle cx="756.39" cy="93.0836" r="7.02704" fill="#F2F3F4"/>
<circle cx="776.643" cy="114.598" r="7.02704" fill="#F2F3F4"/>
<circle cx="776.643" cy="93.0836" r="7.02704" fill="#F2F3F4"/>
<circle cx="736.137" cy="157.626" r="7.02704" fill="#F2F3F4"/>
<circle cx="736.137" cy="136.112" r="7.02704" fill="#F2F3F4"/>
<circle cx="756.39" cy="157.626" r="7.02704" fill="#F2F3F4"/>
<circle cx="756.39" cy="136.112" r="7.02704" fill="#F2F3F4"/>
<circle cx="776.643" cy="157.626" r="7.02704" fill="#F2F3F4"/>
<circle cx="776.643" cy="136.112" r="7.02704" fill="#F2F3F4"/>
<circle cx="736.137" cy="200.654" r="7.02704" fill="#F2F3F4"/>
<circle cx="736.137" cy="179.14" r="7.02704" fill="#F2F3F4"/>
<circle cx="756.39" cy="200.654" r="7.02704" fill="#F2F3F4"/>
<circle cx="756.39" cy="179.14" r="7.02704" fill="#F2F3F4"/>
<circle cx="776.643" cy="200.654" r="7.02704" fill="#F2F3F4"/>
<circle cx="776.643" cy="179.14" r="7.02704" fill="#F2F3F4"/>
<circle cx="796.896" cy="28.5412" r="7.02704" fill="#F2F3F4"/>
<circle cx="796.896" cy="7.02704" r="7.02704" fill="#F2F3F4"/>
<circle cx="817.149" cy="28.5412" r="7.02704" fill="#F2F3F4"/>
<circle cx="817.149" cy="7.02704" r="7.02704" fill="#F2F3F4"/>
<circle cx="837.402" cy="28.5412" r="7.02704" fill="#F2F3F4"/>
<circle cx="837.402" cy="7.02704" r="7.02704" fill="#F2F3F4"/>
<circle cx="796.896" cy="71.5695" r="7.02704" fill="#F2F3F4"/>
<circle cx="796.896" cy="50.0554" r="7.02704" fill="#F2F3F4"/>
<circle cx="817.149" cy="71.5695" r="7.02704" fill="#F2F3F4"/>
<circle cx="817.149" cy="50.0554" r="7.02704" fill="#F2F3F4"/>
<circle cx="837.402" cy="71.5695" r="7.02704" fill="#F2F3F4"/>
<circle cx="837.402" cy="50.0554" r="7.02704" fill="#F2F3F4"/>
<circle cx="796.896" cy="114.598" r="7.02704" fill="#F2F3F4"/>
<circle cx="796.896" cy="93.0836" r="7.02704" fill="#F2F3F4"/>
<circle cx="817.149" cy="114.598" r="7.02704" fill="#F2F3F4"/>
<circle cx="817.149" cy="93.0836" r="7.02704" fill="#F2F3F4"/>
<circle cx="837.402" cy="114.598" r="7.02704" fill="#F2F3F4"/>
<circle cx="837.402" cy="93.0836" r="7.02704" fill="#F2F3F4"/>
<circle cx="796.896" cy="157.626" r="7.02704" fill="#F2F3F4"/>
<circle cx="796.896" cy="136.112" r="7.02704" fill="#F2F3F4"/>
<circle cx="817.149" cy="157.626" r="7.02704" fill="#F2F3F4"/>
<circle cx="817.149" cy="136.112" r="7.02704" fill="#F2F3F4"/>
<circle cx="837.402" cy="157.626" r="7.02704" fill="#F2F3F4"/>
<circle cx="837.402" cy="136.112" r="7.02704" fill="#F2F3F4"/>
<circle cx="796.896" cy="200.654" r="7.02704" fill="#F2F3F4"/>
<circle cx="796.896" cy="179.14" r="7.02704" fill="#F2F3F4"/>
<circle cx="817.149" cy="200.654" r="7.02704" fill="#F2F3F4"/>
<circle cx="817.149" cy="179.14" r="7.02704" fill="#F2F3F4"/>
<circle cx="837.402" cy="200.654" r="7.02704" fill="#F2F3F4"/>
<circle cx="837.402" cy="179.14" r="7.02704" fill="#F2F3F4"/>
<circle cx="857.655" cy="28.5412" r="7.02704" fill="#F2F3F4"/>
<circle cx="857.655" cy="7.02704" r="7.02704" fill="#F2F3F4"/>
<circle cx="877.908" cy="28.5412" r="7.02704" fill="#F2F3F4"/>
<circle cx="877.908" cy="7.02704" r="7.02704" fill="#F2F3F4"/>
<circle cx="898.161" cy="28.5412" r="7.02704" fill="#F2F3F4"/>
<circle cx="898.161" cy="7.02704" r="7.02704" fill="#F2F3F4"/>
<circle cx="857.655" cy="71.5695" r="7.02704" fill="#F2F3F4"/>
<circle cx="857.655" cy="50.0554" r="7.02704" fill="#F2F3F4"/>
<circle cx="877.908" cy="71.5695" r="7.02704" fill="#F2F3F4"/>
<circle cx="877.908" cy="50.0554" r="7.02704" fill="#F2F3F4"/>
<circle cx="898.161" cy="71.5695" r="7.02704" fill="#F2F3F4"/>
<circle cx="898.161" cy="50.0554" r="7.02704" fill="#F2F3F4"/>
<circle cx="857.655" cy="114.598" r="7.02704" fill="#F2F3F4"/>
<circle cx="857.655" cy="93.0836" r="7.02704" fill="#F2F3F4"/>
<circle cx="877.908" cy="114.598" r="7.02704" fill="#F2F3F4"/>
<circle cx="877.908" cy="93.0836" r="7.02704" fill="#F2F3F4"/>
<circle cx="898.161" cy="114.598" r="7.02704" fill="#F2F3F4"/>
<circle cx="898.161" cy="93.0836" r="7.02704" fill="#F2F3F4"/>
<circle cx="857.655" cy="157.626" r="7.02704" fill="#F2F3F4"/>
<circle cx="857.655" cy="136.112" r="7.02704" fill="#F2F3F4"/>
<circle cx="877.908" cy="157.626" r="7.02704" fill="#F2F3F4"/>
<circle cx="877.908" cy="136.112" r="7.02704" fill="#F2F3F4"/>
<circle cx="898.161" cy="157.626" r="7.02704" fill="#F2F3F4"/>
<circle cx="898.161" cy="136.112" r="7.02704" fill="#F2F3F4"/>
<circle cx="857.655" cy="200.654" r="7.02704" fill="#F2F3F4"/>
<circle cx="857.655" cy="179.14" r="7.02704" fill="#F2F3F4"/>
<circle cx="877.908" cy="200.654" r="7.02704" fill="#F2F3F4"/>
<circle cx="877.908" cy="179.14" r="7.02704" fill="#F2F3F4"/>
<circle cx="898.161" cy="200.654" r="7.02704" fill="#F2F3F4"/>
<circle cx="898.161" cy="179.14" r="7.02704" fill="#F2F3F4"/>
<circle cx="918.414" cy="28.5412" r="7.02704" fill="#F2F3F4"/>
<circle cx="918.414" cy="7.02704" r="7.02704" fill="#F2F3F4"/>
<circle cx="938.668" cy="28.5412" r="7.02704" fill="#F2F3F4"/>
<circle cx="938.668" cy="7.02704" r="7.02704" fill="#F2F3F4"/>
<circle cx="958.921" cy="28.5412" r="7.02704" fill="#F2F3F4"/>
<circle cx="958.921" cy="7.02704" r="7.02704" fill="#F2F3F4"/>
<circle cx="918.414" cy="71.5695" r="7.02704" fill="#F2F3F4"/>
<circle cx="918.414" cy="50.0554" r="7.02704" fill="#F2F3F4"/>
<circle cx="938.668" cy="71.5695" r="7.02704" fill="#F2F3F4"/>
<circle cx="938.668" cy="50.0554" r="7.02704" fill="#F2F3F4"/>
<circle cx="958.921" cy="71.5695" r="7.02704" fill="#F2F3F4"/>
<circle cx="958.921" cy="50.0554" r="7.02704" fill="#F2F3F4"/>
<circle cx="918.414" cy="114.598" r="7.02704" fill="#F2F3F4"/>
<circle cx="918.414" cy="93.0836" r="7.02704" fill="#F2F3F4"/>
<circle cx="938.668" cy="114.598" r="7.02704" fill="#F2F3F4"/>
<circle cx="938.668" cy="93.0836" r="7.02704" fill="#F2F3F4"/>
<circle cx="958.921" cy="114.598" r="7.02704" fill="#F2F3F4"/>
<circle cx="958.921" cy="93.0836" r="7.02704" fill="#F2F3F4"/>
<circle cx="918.414" cy="157.626" r="7.02704" fill="#F2F3F4"/>
<circle cx="918.414" cy="136.112" r="7.02704" fill="#F2F3F4"/>
<circle cx="938.668" cy="157.626" r="7.02704" fill="#F2F3F4"/>
<circle cx="938.668" cy="136.112" r="7.02704" fill="#F2F3F4"/>
<circle cx="958.921" cy="157.626" r="7.02704" fill="#F2F3F4"/>
<circle cx="958.921" cy="136.112" r="7.02704" fill="#F2F3F4"/>
<circle cx="918.414" cy="200.654" r="7.02704" fill="#F2F3F4"/>
<circle cx="918.414" cy="179.14" r="7.02704" fill="#F2F3F4"/>
<circle cx="938.668" cy="200.654" r="7.02704" fill="#F2F3F4"/>
<circle cx="938.668" cy="179.14" r="7.02704" fill="#F2F3F4"/>
<circle cx="958.921" cy="200.654" r="7.02704" fill="#F2F3F4"/>
<circle cx="958.921" cy="179.14" r="7.02704" fill="#F2F3F4"/>
<circle cx="979.174" cy="28.5412" r="7.02704" fill="#F2F3F4"/>
<circle cx="979.174" cy="7.02704" r="7.02704" fill="#F2F3F4"/>
<circle cx="999.426" cy="28.5412" r="7.02704" fill="#F2F3F4"/>
<circle cx="999.426" cy="7.02704" r="7.02704" fill="#F2F3F4"/>
<circle cx="1019.68" cy="28.5412" r="7.02704" fill="#F2F3F4"/>
<circle cx="1019.68" cy="7.02704" r="7.02704" fill="#F2F3F4"/>
<circle cx="979.174" cy="71.5695" r="7.02704" fill="#F2F3F4"/>
<circle cx="979.174" cy="50.0554" r="7.02704" fill="#F2F3F4"/>
<circle cx="999.426" cy="71.5695" r="7.02704" fill="#F2F3F4"/>
<circle cx="999.426" cy="50.0554" r="7.02704" fill="#F2F3F4"/>
<circle cx="1019.68" cy="71.5695" r="7.02704" fill="#F2F3F4"/>
<circle cx="1019.68" cy="50.0554" r="7.02704" fill="#F2F3F4"/>
<circle cx="979.174" cy="114.598" r="7.02704" fill="#F2F3F4"/>
<circle cx="979.174" cy="93.0836" r="7.02704" fill="#F2F3F4"/>
<circle cx="999.426" cy="114.598" r="7.02704" fill="#F2F3F4"/>
<circle cx="999.426" cy="93.0836" r="7.02704" fill="#F2F3F4"/>
<circle cx="1019.68" cy="114.598" r="7.02704" fill="#F2F3F4"/>
<circle cx="1019.68" cy="93.0836" r="7.02704" fill="#F2F3F4"/>
<circle cx="979.174" cy="157.626" r="7.02704" fill="#F2F3F4"/>
<circle cx="979.174" cy="136.112" r="7.02704" fill="#F2F3F4"/>
<circle cx="999.426" cy="157.626" r="7.02704" fill="#F2F3F4"/>
<circle cx="999.426" cy="136.112" r="7.02704" fill="#F2F3F4"/>
<circle cx="1019.68" cy="157.626" r="7.02704" fill="#F2F3F4"/>
<circle cx="1019.68" cy="136.112" r="7.02704" fill="#F2F3F4"/>
<circle cx="979.174" cy="200.654" r="7.02704" fill="#F2F3F4"/>
<circle cx="979.174" cy="179.14" r="7.02704" fill="#F2F3F4"/>
<circle cx="999.426" cy="200.654" r="7.02704" fill="#F2F3F4"/>
<circle cx="999.426" cy="179.14" r="7.02704" fill="#F2F3F4"/>
<circle cx="1019.68" cy="200.654" r="7.02704" fill="#F2F3F4"/>
<circle cx="1019.68" cy="179.14" r="7.02704" fill="#F2F3F4"/>
<circle cx="1039.93" cy="28.5412" r="7.02704" fill="#F2F3F4"/>
<circle cx="1039.93" cy="7.02704" r="7.02704" fill="#F2F3F4"/>
<circle cx="1060.19" cy="28.5412" r="7.02704" fill="#F2F3F4"/>
<circle cx="1060.19" cy="7.02704" r="7.02704" fill="#F2F3F4"/>
<circle cx="1080.44" cy="28.5412" r="7.02704" fill="#F2F3F4"/>
<circle cx="1080.44" cy="7.02704" r="7.02704" fill="#F2F3F4"/>
<circle cx="1039.93" cy="71.5695" r="7.02704" fill="#F2F3F4"/>
<circle cx="1039.93" cy="50.0554" r="7.02704" fill="#F2F3F4"/>
<circle cx="1060.19" cy="71.5695" r="7.02704" fill="#F2F3F4"/>
<circle cx="1060.19" cy="50.0554" r="7.02704" fill="#F2F3F4"/>
<circle cx="1080.44" cy="71.5695" r="7.02704" fill="#F2F3F4"/>
<circle cx="1080.44" cy="50.0554" r="7.02704" fill="#F2F3F4"/>
<circle cx="1039.93" cy="114.598" r="7.02704" fill="#F2F3F4"/>
<circle cx="1039.93" cy="93.0836" r="7.02704" fill="#F2F3F4"/>
<circle cx="1060.19" cy="114.598" r="7.02704" fill="#F2F3F4"/>
<circle cx="1060.19" cy="93.0836" r="7.02704" fill="#F2F3F4"/>
<circle cx="1080.44" cy="114.598" r="7.02704" fill="#F2F3F4"/>
<circle cx="1080.44" cy="93.0836" r="7.02704" fill="#F2F3F4"/>
<circle cx="1039.93" cy="157.626" r="7.02704" fill="#F2F3F4"/>
<circle cx="1039.93" cy="136.112" r="7.02704" fill="#F2F3F4"/>
<circle cx="1060.19" cy="157.626" r="7.02704" fill="#F2F3F4"/>
<circle cx="1060.19" cy="136.112" r="7.02704" fill="#F2F3F4"/>
<circle cx="1080.44" cy="157.626" r="7.02704" fill="#F2F3F4"/>
<circle cx="1080.44" cy="136.112" r="7.02704" fill="#F2F3F4"/>
<circle cx="1039.93" cy="200.654" r="7.02704" fill="#F2F3F4"/>
<circle cx="1039.93" cy="179.14" r="7.02704" fill="#F2F3F4"/>
<circle cx="1060.19" cy="200.654" r="7.02704" fill="#F2F3F4"/>
<circle cx="1060.19" cy="179.14" r="7.02704" fill="#F2F3F4"/>
<circle cx="1080.44" cy="200.654" r="7.02704" fill="#F2F3F4"/>
<circle cx="1080.44" cy="179.14" r="7.02704" fill="#F2F3F4"/>
<circle cx="1100.69" cy="28.5412" r="7.02704" fill="#F2F3F4"/>
<circle cx="1100.69" cy="7.02704" r="7.02704" fill="#F2F3F4"/>
<circle cx="1100.69" cy="71.5695" r="7.02704" fill="#F2F3F4"/>
<circle cx="1100.69" cy="50.0554" r="7.02704" fill="#F2F3F4"/>
<circle cx="1100.69" cy="114.598" r="7.02704" fill="#F2F3F4"/>
<circle cx="1100.69" cy="93.0836" r="7.02704" fill="#F2F3F4"/>
<circle cx="1100.69" cy="157.626" r="7.02704" fill="#F2F3F4"/>
<circle cx="1100.69" cy="136.112" r="7.02704" fill="#F2F3F4"/>
<circle cx="1100.69" cy="200.654" r="7.02704" fill="#F2F3F4"/>
<circle cx="1100.69" cy="179.14" r="7.02704" fill="#F2F3F4"/>
<circle cx="67.7863" cy="28.5412" r="7.02704" fill="#F2F3F4"/>
<circle cx="67.7863" cy="7.02704" r="7.02704" fill="#F2F3F4"/>
<circle cx="88.0393" cy="28.5412" r="7.02704" fill="#F2F3F4"/>
<circle cx="88.0393" cy="7.02704" r="7.02704" fill="#F2F3F4"/>
<circle cx="108.292" cy="28.5412" r="7.02704" fill="#F2F3F4"/>
<circle cx="108.292" cy="7.02704" r="7.02704" fill="#F2F3F4"/>
<circle cx="67.7863" cy="71.5695" r="7.02704" fill="#F2F3F4"/>
<circle cx="67.7863" cy="50.0554" r="7.02704" fill="#F2F3F4"/>
<circle cx="88.0393" cy="71.5695" r="7.02704" fill="#F2F3F4"/>
<circle cx="88.0393" cy="50.0554" r="7.02704" fill="#F2F3F4"/>
<circle cx="108.292" cy="71.5695" r="7.02704" fill="#F2F3F4"/>
<circle cx="108.292" cy="50.0554" r="7.02704" fill="#F2F3F4"/>
<circle cx="67.7863" cy="157.626" r="7.02704" fill="#F2F3F4"/>
<circle cx="67.7863" cy="136.112" r="7.02704" fill="#F2F3F4"/>
<circle cx="88.0393" cy="157.626" r="7.02704" fill="#F2F3F4"/>
<circle cx="88.0393" cy="136.112" r="7.02704" fill="#F2F3F4"/>
<circle cx="108.292" cy="157.626" r="7.02704" fill="#F2F3F4"/>
<circle cx="108.292" cy="136.112" r="7.02704" fill="#F2F3F4"/>
<circle cx="67.7863" cy="200.654" r="7.02704" fill="#F2F3F4"/>
<circle cx="67.7863" cy="179.14" r="7.02704" fill="#F2F3F4"/>
<circle cx="88.0393" cy="200.654" r="7.02704" fill="#F2F3F4"/>
<circle cx="88.0393" cy="179.14" r="7.02704" fill="#F2F3F4"/>
<circle cx="108.292" cy="200.654" r="7.02704" fill="#F2F3F4"/>
<circle cx="108.292" cy="179.14" r="7.02704" fill="#F2F3F4"/>
<circle cx="128.546" cy="28.5412" r="7.02704" fill="#F2F3F4"/>
<circle cx="128.546" cy="7.02704" r="7.02704" fill="#F2F3F4"/>
<circle cx="148.799" cy="28.5412" r="7.02704" fill="#F2F3F4"/>
<circle cx="148.799" cy="7.02704" r="7.02704" fill="#F2F3F4"/>
<circle cx="169.051" cy="28.5412" r="7.02704" fill="#F2F3F4"/>
<circle cx="169.051" cy="7.02704" r="7.02704" fill="#F2F3F4"/>
<circle cx="128.546" cy="71.5695" r="7.02704" fill="#F2F3F4"/>
<circle cx="128.546" cy="50.0554" r="7.02704" fill="#F2F3F4"/>
<circle cx="148.799" cy="71.5695" r="7.02704" fill="#F2F3F4"/>
<circle cx="148.799" cy="50.0554" r="7.02704" fill="#F2F3F4"/>
<circle cx="169.051" cy="71.5695" r="7.02704" fill="#F2F3F4"/>
<circle cx="169.051" cy="50.0554" r="7.02704" fill="#F2F3F4"/>
<circle cx="128.546" cy="114.598" r="7.02704" fill="#F2F3F4"/>
<circle cx="128.546" cy="93.0836" r="7.02704" fill="#F2F3F4"/>
<circle cx="148.799" cy="114.598" r="7.02704" fill="#F2F3F4"/>
<circle cx="148.799" cy="93.0836" r="7.02704" fill="#F2F3F4"/>
<circle cx="169.051" cy="114.598" r="7.02704" fill="#F2F3F4"/>
<circle cx="169.051" cy="93.0836" r="7.02704" fill="#F2F3F4"/>
<circle cx="128.546" cy="157.626" r="7.02704" fill="#F2F3F4"/>
<circle cx="128.546" cy="136.112" r="7.02704" fill="#F2F3F4"/>
<circle cx="148.799" cy="157.626" r="7.02704" fill="#F2F3F4"/>
<circle cx="148.799" cy="136.112" r="7.02704" fill="#F2F3F4"/>
<circle cx="169.051" cy="157.626" r="7.02704" fill="#F2F3F4"/>
<circle cx="169.051" cy="136.112" r="7.02704" fill="#F2F3F4"/>
<circle cx="128.546" cy="200.654" r="7.02704" fill="#F2F3F4"/>
<circle cx="128.546" cy="179.14" r="7.02704" fill="#F2F3F4"/>
<circle cx="148.799" cy="200.654" r="7.02704" fill="#F2F3F4"/>
<circle cx="148.799" cy="179.14" r="7.02704" fill="#F2F3F4"/>
<circle cx="169.051" cy="200.654" r="7.02704" fill="#F2F3F4"/>
<circle cx="169.051" cy="179.14" r="7.02704" fill="#F2F3F4"/>
<path d="M162.492 84.3824L164.292 89.9624C163.032 90.3824 161.642 90.6624 160.122 90.8024C158.622 90.9424 156.942 91.0124 155.082 91.0124C156.982 91.8524 158.412 92.9324 159.372 94.2524C160.332 95.5524 160.812 97.1524 160.812 99.0524C160.812 101.112 160.312 102.952 159.312 104.572C158.312 106.192 156.872 107.462 154.992 108.382C153.132 109.302 150.912 109.762 148.332 109.762C147.412 109.762 146.612 109.722 145.932 109.642C145.272 109.562 144.622 109.432 143.982 109.252C143.042 109.872 142.572 110.742 142.572 111.862C142.572 112.502 142.832 113.062 143.352 113.542C143.892 114.002 144.952 114.232 146.532 114.232H152.052C154.312 114.232 156.302 114.622 158.022 115.402C159.762 116.162 161.122 117.212 162.102 118.552C163.102 119.872 163.602 121.372 163.602 123.052C163.602 126.212 162.242 128.662 159.522 130.402C156.802 132.142 152.882 133.012 147.762 133.012C144.122 133.012 141.272 132.642 139.212 131.902C137.172 131.162 135.732 130.062 134.892 128.602C134.052 127.142 133.632 125.352 133.632 123.232H139.662C139.662 124.352 139.872 125.272 140.292 125.992C140.732 126.712 141.542 127.242 142.722 127.582C143.902 127.942 145.602 128.122 147.822 128.122C151.122 128.122 153.452 127.712 154.812 126.892C156.172 126.092 156.852 124.962 156.852 123.502C156.852 122.202 156.292 121.202 155.172 120.502C154.052 119.822 152.552 119.482 150.672 119.482H145.242C142.242 119.482 140.042 118.872 138.642 117.652C137.262 116.432 136.572 115.012 136.572 113.392C136.572 111.112 137.752 109.202 140.112 107.662C138.212 106.662 136.822 105.452 135.942 104.032C135.082 102.592 134.652 100.852 134.652 98.8124C134.652 96.5724 135.212 94.6124 136.332 92.9324C137.452 91.2524 139.002 89.9424 140.982 89.0024C142.982 88.0624 145.282 87.5924 147.882 87.5924C150.422 87.6124 152.542 87.4824 154.242 87.2024C155.942 86.9224 157.422 86.5424 158.682 86.0624C159.962 85.5624 161.232 85.0024 162.492 84.3824ZM147.942 92.2124C145.802 92.2124 144.192 92.8224 143.112 94.0424C142.032 95.2424 141.492 96.8124 141.492 98.7524C141.492 100.752 142.042 102.362 143.142 103.582C144.242 104.782 145.872 105.382 148.032 105.382C150.012 105.382 151.522 104.802 152.562 103.642C153.622 102.482 154.152 100.832 154.152 98.6924C154.152 94.3724 152.082 92.2124 147.942 92.2124ZM168.499 120.082V115.282H173.149V93.1724H168.499V88.4024H178.279L179.509 95.7524C180.689 93.0924 182.149 91.0724 183.889 89.6924C185.649 88.2924 187.909 87.5924 190.669 87.5924C191.609 87.5924 192.449 87.6724 193.189 87.8324C193.949 87.9724 194.699 88.1624 195.439 88.4024L194.299 100.072H189.499V93.6224C187.259 93.7024 185.329 94.6024 183.709 96.3224C182.089 98.0224 180.809 100.422 179.869 103.522V115.282H186.259V120.082H168.499ZM224.786 112.312C224.786 113.572 224.976 114.482 225.356 115.042C225.736 115.602 226.346 116.022 227.186 116.302L225.686 120.862C224.126 120.682 222.776 120.252 221.636 119.572C220.516 118.892 219.676 117.862 219.116 116.482C217.956 117.962 216.486 119.072 214.706 119.812C212.926 120.532 211.026 120.892 209.006 120.892C205.786 120.892 203.246 119.992 201.386 118.192C199.526 116.372 198.596 113.992 198.596 111.052C198.596 107.712 199.896 105.142 202.496 103.342C205.096 101.542 208.816 100.642 213.656 100.642H218.186V98.5724C218.186 96.5124 217.566 95.0424 216.326 94.1624C215.086 93.2624 213.356 92.8124 211.136 92.8124C210.096 92.8124 208.836 92.9524 207.356 93.2324C205.876 93.4924 204.326 93.9024 202.706 94.4624L201.056 89.7224C203.036 88.9824 204.976 88.4424 206.876 88.1024C208.776 87.7424 210.536 87.5624 212.156 87.5624C216.396 87.5624 219.556 88.5024 221.636 90.3824C223.736 92.2624 224.786 94.8624 224.786 98.1824V112.312ZM211.046 115.942C212.406 115.942 213.736 115.582 215.036 114.862C216.336 114.142 217.386 113.132 218.186 111.832V104.842H214.466C211.306 104.842 209.046 105.372 207.686 106.432C206.326 107.472 205.646 108.912 205.646 110.752C205.646 114.212 207.446 115.942 211.046 115.942ZM232.952 120.082V88.4024H238.742L239.252 92.5124C240.572 90.9124 242.132 89.6924 243.932 88.8524C245.732 87.9924 247.582 87.5624 249.482 87.5624C252.442 87.5624 254.652 88.3924 256.112 90.0524C257.592 91.7124 258.332 94.0224 258.332 96.9824V120.082H251.612V100.312C251.612 97.5724 251.332 95.6224 250.772 94.4624C250.232 93.2824 249.002 92.6924 247.082 92.6924C245.542 92.6924 244.132 93.1724 242.852 94.1324C241.592 95.0724 240.532 96.1424 239.672 97.3424V120.082H232.952ZM277.959 72.8924C279.279 72.8924 280.339 73.2924 281.139 74.0924C281.959 74.8924 282.369 75.8924 282.369 77.0924C282.369 78.2924 281.959 79.3024 281.139 80.1224C280.339 80.9424 279.279 81.3524 277.959 81.3524C276.679 81.3524 275.629 80.9424 274.809 80.1224C273.989 79.3024 273.579 78.2924 273.579 77.0924C273.579 75.8924 273.989 74.8924 274.809 74.0924C275.629 73.2924 276.679 72.8924 277.959 72.8924ZM282.639 88.4024V115.162H291.249V120.082H266.439V115.162H275.919V93.3224H266.739V88.4024H282.639ZM318.165 118.402C317.005 119.142 315.615 119.742 313.995 120.202C312.375 120.662 310.685 120.892 308.925 120.892C305.245 120.892 302.445 119.942 300.525 118.042C298.625 116.122 297.675 113.602 297.675 110.482V93.2924H290.625V88.4024H297.675V81.3224L304.395 80.5124V88.4024H315.075L314.325 93.2924H304.395V110.422C304.395 112.122 304.815 113.392 305.655 114.232C306.515 115.052 307.915 115.462 309.855 115.462C311.015 115.462 312.075 115.322 313.035 115.042C314.015 114.762 314.915 114.402 315.735 113.962L318.165 118.402Z" fill="black"/>
<circle cx="67.7863" cy="93.1705" r="7.02704" fill="#5BED96"/>
<circle cx="67.7863" cy="114.685" r="7.02704" fill="#5BED96"/>
<circle cx="88.0393" cy="114.685" r="7.02704" fill="#25A3FF"/>
<circle cx="108.293" cy="114.685" r="7.02704" fill="#6745F2"/>
<circle cx="108.293" cy="93.1705" r="7.02704" fill="#6745F2"/>
<circle cx="88.0393" cy="93.1705" r="7.02704" fill="#25A3FF"/>
</svg>
